<svg xmlns="http://www.w3.org/2000/svg" xmlns:xlink="http://www.w3.org/1999/xlink" width="0" height="0"><symbol id="account" viewBox="0 0 15 15"><g fill-rule="evenodd"><g fill-rule="nonzero"><g><path d="M7.53 0c2.327 0 4.225 1.883 4.225 4.19 0 1.64-1.04 3.158-2.571 3.826C12.55 8.806 14.939 11.66 15 15h-.98c-.183-3.4-3-6.134-6.49-6.134-3.55 0-6.367 2.733-6.49 6.134H0c.122-3.34 2.51-6.194 5.816-6.984-1.53-.668-2.51-2.186-2.51-3.826C3.306 1.883 5.204 0 7.531 0zm0 1.032c-1.775 0-3.244 1.397-3.244 3.158s1.47 3.158 3.245 3.158c1.775 0 3.183-1.397 3.183-3.158 0-1.76-1.408-3.158-3.183-3.158z" transform="translate(-556.000000, -499.000000) translate(200.000000, 447.000000) translate(356.000000, 52.000000)"></path></g></g></g></symbol><symbol id="ac-star" x="0px" y="0px" viewBox="0 0 483 455" style="enable-background:new 0 0 483 455" xml:space="preserve"><polygon points="339.92,281.71 483,203.08 482.14,199.74 310.51,199.74 308.83,202.1 335.05,278.82 184.38,278.82 279.76,106.48
	279.89,105.03 243.05,0 239.68,0.01 171,199.74 0.48,199.74 -0.38,203.08 142.79,281.76 83.89,453.07 87.13,454.51 179.16,288.23
	299.48,330.97 395.76,454.74 398.85,453.07 "></polygon></symbol><symbol id="address-pin" viewBox="0 0 20 28"><g fill-rule="evenodd"><g fill-rule="nonzero"><g><path d="M10 0C4.486 0 0 4.416 0 9.844c0 1.834.516 3.623 1.493 5.176L9.43 27.612c.152.241.42.388.708.388h.006c.291-.002.56-.153.709-.399l7.736-12.714c.922-1.52 1.41-3.264 1.41-5.043C20 4.416 15.514 0 10 0zm0 1.63c4.595 0 8.339 3.69 8.339 8.214 0 1.483-.412 2.936-1.18 4.2l-7.033 11.56L2.91 14.156c-.813-1.293-1.253-2.784-1.253-4.312C1.656 5.32 5.405 1.63 10 1.63zm0 3.292c-2.757 0-5 2.208-5 4.922 0 2.696 2.207 4.922 5 4.922 2.828 0 5-2.255 5-4.922 0-2.714-2.243-4.922-5-4.922zm0 1.63c1.838 0 3.339 1.482 3.339 3.292 0 1.787-1.462 3.292-3.339 3.292-1.848 0-3.344-1.478-3.344-3.292 0-1.81 1.506-3.292 3.344-3.292z" transform="translate(-200.000000, -1826.000000) translate(200.000000, 1757.000000) translate(0.000000, 69.000000)"></path></g></g></g></symbol><symbol id="back-arrow" viewBox="0 0 16 14"><g fill-rule="evenodd"><g fill-rule="nonzero"><g><path d="M0 7L0.666 7.77 6.072 14 7.901 12.461 4.195 8.187 16 8.187 16 5.813 4.195 5.813 7.901 1.539 6.072 0 0.666 6.23z" transform="translate(-432.000000, -358.000000) translate(200.000000, 295.000000) translate(232.000000, 63.000000)"></path></g></g></g></symbol><symbol id="basket" viewBox="0 0 12 15"><g fill-rule="evenodd"><g fill-rule="nonzero"><g><path d="M5.99 0C7.914 0 9.5 1.512 9.602 3.397l.005.19-.001 1.623h.907c.713 0 1.308.502 1.453 1.177l.024.137.01.141v6.88c0 .758-.58 1.378-1.325 1.448l-.142.007H1.467c-.765 0-1.39-.575-1.46-1.314L0 13.546v-6.88c0-.759.58-1.379 1.325-1.449l.142-.007h.905l.001-1.623C2.373 1.742 3.798.21 5.61.02l.189-.015.19-.005zM2.372 6.108h-.905c-.273 0-.51.207-.554.468l-.008.09v6.88c0 .27.21.505.472.549l.09.007h9.046c.273 0 .51-.207.554-.468l.008-.089v-6.88c0-.27-.21-.505-.472-.55l-.09-.007h-.907v2.327h-.904V6.108H3.278v2.327h-.905V6.108zM5.99.898c-1.445 0-2.622 1.114-2.707 2.525l-.005.164V5.21h5.424V3.587c0-1.433-1.124-2.6-2.547-2.684L5.99.898z" transform="translate(-591.000000, -499.000000) translate(200.000000, 447.000000) translate(391.000000, 52.000000)"></path></g></g></g></symbol><symbol id="basket-2" viewBox="222.903 157.991 80.526 94"><title>C3239C31-D300-419C-9B42-BD9EE48483E5</title><g stroke="none" stroke-width="1" fill-rule="evenodd" transform="matrix(1, 0, 0, 1, 243.878098, 185.413559)"><g id="Assets-GUI" transform="translate(-200.000000, -1481.000000)"><g id="Ürün-Detay" transform="translate(200.000000, 1432.000000)"><g id="find_Size" transform="translate(0.000000, 49.000000)"><g id="clothes-hanger" transform="translate(5.000000, 7.000000)" fill-rule="nonzero"><title>B58F168D-DC00-4049-891A-E6556B9A9922</title><g id="g-1" stroke="none" stroke-width="1" fill-rule="evenodd" transform="matrix(1, 0, 0, 1, -11.159998, -15.972013)"><g id="g-2" transform="translate(-900.000000, -1916.000000)"><g id="Ödeme" transform="translate(200.000000, 1757.000000)"><g id="order_Summary_BlackBorder" transform="translate(700.000000, 159.000000)"><g fill-rule="evenodd" transform="matrix(1, 0, 0, 1, -1.311711, -1.000999)"><g><g><g transform="translate(-1140.000000, -833.000000) translate(200.000000, 786.000000) translate(940.000000, 47.000000)"><title>2C352858-823D-4F3C-BAB7-3ED5F24CCA0C</title><g id="g-3" stroke="none" stroke-width="1" fill-rule="evenodd" transform="matrix(1, 0, 0, 1, -1.096023, 0.313153)"><g id="g-4" transform="translate(-264.000000, -1916.000000)"><g id="g-5" transform="translate(200.000000, 1757.000000)"><g id="inBasket_Products_BlackBorder" transform="translate(64.000000, 159.000000)"><g id="shopping-bag" transform="matrix(5.158867, 0, 0, 5.158867, -8.321312, -17.06251)" fill-rule="nonzero"><path d="M13.9878613,17.2444306 L12.9589017,5.04912919 C12.9308208,4.71608612 12.6685434,4.46098565 12.3543931,4.46098565 L10.2324624,4.46098565 L10.2324624,3.44247847 C10.2324624,1.54429665 8.78147977,0 6.99797688,0 C5.21455491,0 3.7637341,1.54429665 3.7637341,3.44247847 L3.7637341,4.46098565 L1.64034682,4.46098565 C1.32619653,4.46098565 1.06391908,4.71608612 1.03583815,5.04912919 L0.00283236994,17.2924019 C-0.0123815029,17.4730909 0.0444277457,17.6521435 0.159421965,17.7859809 C0.274416185,17.9198182 0.43699422,17.9960383 0.60734104,17.9960383 L13.3874798,17.9960383 C13.3879653,17.9960383 13.3886127,17.9960383 13.3890983,17.9960383 C13.7243699,17.9960383 13.9960347,17.7068325 13.9960347,17.3501053 C13.9960347,17.3141914 13.9932023,17.2787943 13.9878613,17.2444306 Z M4.97760694,3.44247847 C4.97760694,2.25663158 5.88396532,1.29186603 6.9980578,1.29186603 C8.11223121,1.29186603 9.01867052,2.25663158 9.01867052,3.44247847 L9.01867052,4.46098565 L4.97760694,4.46098565 L4.97760694,3.44247847 Z M1.27124855,16.7042584 L2.19524855,5.75285167 L3.7637341,5.75285167 L3.7637341,6.90795215 C3.7637341,7.26467943 4.03539884,7.55388517 4.37067052,7.55388517 C4.7059422,7.55388517 4.97760694,7.26467943 4.97760694,6.90795215 L4.97760694,5.75285167 L9.01867052,5.75285167 L9.01867052,6.90795215 C9.01867052,7.26467943 9.29033526,7.55388517 9.62560694,7.55388517 C9.96087861,7.55388517 10.2325434,7.26467943 10.2325434,6.90795215 L10.2325434,5.75285167 L11.7995723,5.75285167 L12.7235723,16.7042584 L1.27124855,16.7042584 L1.27124855,16.7042584 Z" id="Shape"></path></g></g></g></g></g></g></g></g></g></g></g></g></g></g></g></g></g></g></symbol><symbol id="check" viewBox="0 0 20 20"><g fill-rule="evenodd"><g fill="#FFF" fill-rule="nonzero" stroke="#000"><g><path d="M16.347.716l2.972 2.25L8.217 19.27.685 13.165l2.23-3.046 4.496 3.678L16.347.716z" transform="translate(-647.000000, -1326.000000) translate(200.000000, 1273.000000) translate(447.000000, 53.000000)"></path></g></g></g></symbol><symbol id="chevron-down" viewBox="0 0 10 6"><g fill-rule="evenodd"><g fill-rule="nonzero"><g><path d="M5 0L4.45 0.506 0 4.61 1.099 6 5 2.401 8.901 6 10 4.61 5.55 0.506z" transform="translate(-282.000000, -362.000000) translate(200.000000, 295.000000) translate(82.000000, 67.000000) translate(5.000000, 3.000000) scale(1, -1) translate(-5.000000, -3.000000)"></path></g></g></g></symbol><symbol id="chevron-left" viewBox="0 0 6 10"><g fill-rule="evenodd"><g fill-rule="nonzero"><g><path d="M3 2L2.45 2.506 -2 6.61 -0.901 8 3 4.401 6.901 8 8 6.61 3.55 2.506z" transform="translate(-226.000000, -360.000000) translate(200.000000, 295.000000) translate(26.000000, 65.000000) translate(3.000000, 5.000000) scale(-1, 1) rotate(-270.000000) translate(-3.000000, -5.000000)"></path></g></g></g></symbol><symbol id="chevron-right" viewBox="0 0 6 10"><g fill-rule="evenodd"><g fill-rule="nonzero"><g><path d="M3 2L2.45 2.506 -2 6.61 -0.901 8 3 4.401 6.901 8 8 6.61 3.55 2.506z" transform="translate(-200.000000, -360.000000) translate(200.000000, 295.000000) translate(0.000000, 65.000000) translate(3.000000, 5.000000) rotate(-270.000000) translate(-3.000000, -5.000000)"></path></g></g></g></symbol><symbol id="chevron-up" viewBox="0 0 10 6"><g fill-rule="evenodd"><g fill-rule="nonzero"><g><path d="M5 0L4.45 0.506 0 4.61 1.099 6 5 2.401 8.901 6 10 4.61 5.55 0.506z" transform="translate(-252.000000, -362.000000) translate(200.000000, 295.000000) translate(52.000000, 67.000000)"></path></g></g></g></symbol><symbol id="close" viewBox="0 0 13 13"><g fill-rule="evenodd"><g fill-rule="nonzero"><g><path d="M11.611 0L6.5 5.111 1.389 0 0 1.389 5.111 6.5 0 11.611 1.389 13 6.5 7.889 11.611 13 13 11.611 7.889 6.5 13 1.389z" transform="translate(-692.000000, -359.000000) translate(200.000000, 295.000000) translate(492.000000, 64.000000)"></path></g></g></g></symbol><symbol id="credit-card" viewBox="237.582 177.484 58.057 46.871"><title>C3239C31-D300-419C-9B42-BD9EE48483E5</title><g stroke="none" stroke-width="1" fill-rule="evenodd" transform="matrix(1, 0, 0, 1, 243.878098, 185.413559)"><g id="Assets-GUI" transform="translate(-200.000000, -1481.000000)"><g id="Ürün-Detay" transform="translate(200.000000, 1432.000000)"><g id="find_Size" transform="translate(0.000000, 49.000000)"><g id="clothes-hanger" transform="translate(5.000000, 7.000000)" fill-rule="nonzero"><title>B58F168D-DC00-4049-891A-E6556B9A9922</title><g id="g-1" stroke="none" stroke-width="1" fill-rule="evenodd" transform="matrix(1, 0, 0, 1, -11.159998, -15.972013)"><g id="g-2" transform="translate(-900.000000, -1916.000000)"><g id="Ödeme" transform="translate(200.000000, 1757.000000)"><g id="order_Summary_BlackBorder" transform="translate(700.000000, 159.000000)"><g fill-rule="evenodd" transform="matrix(1, 0, 0, 1, -1.311711, -1.000999)"><g><g><g transform="translate(-1140.000000, -833.000000) translate(200.000000, 786.000000) translate(940.000000, 47.000000)"><title>2C352858-823D-4F3C-BAB7-3ED5F24CCA0C</title><g id="g-3" stroke="none" stroke-width="1" fill-rule="evenodd" transform="matrix(1, 0, 0, 1, -1.096023, 0.313153)"><g id="g-4" transform="translate(-264.000000, -1916.000000)"><g id="g-5" transform="translate(200.000000, 1757.000000)"><g id="inBasket_Products_BlackBorder" transform="translate(64.000000, 159.000000)"><g fill-rule="evenodd" transform="matrix(1, 0, 0, 1, 7.793294, 3.800616)"><g><g><g transform="translate(-200.000000, -835.000000) translate(200.000000, 786.000000) translate(0.000000, 49.000000)"><title>C3239C31-D300-419C-9B42-BD9EE48483E5</title><g fill-rule="evenodd" transform="matrix(1, 0, 0, 1, -6.344975, 0.113778)"><g><g><g transform="translate(-1288.000000, -833.000000) translate(200.000000, 786.000000) translate(1088.000000, 47.000000)"><title>B2202D3B-3A40-4B85-81BC-594FAB501CBA</title><g id="g-6" stroke="none" stroke-width="1" fill-rule="evenodd" transform="matrix(1, 0, 0, 1, 6.067307, 0.587157)"><g id="g-7" transform="translate(-688.000000, -1916.000000)"><g id="g-8" transform="translate(200.000000, 1757.000000)"><g id="payment_Info_BlackBorder" transform="translate(488.000000, 159.000000)"><g id="credit-card" transform="translate(12.000000, 14.000000)" fill-rule="nonzero"><path d="M 38.285 -16.232 L -14.429 -16.232 C -15.535 -16.232 -16.432 -15.294 -16.432 -14.137 L -16.432 -3.941 L -16.432 1.803 L -16.432 26.937 C -16.432 28.095 -15.535 29.032 -14.429 29.032 L 38.285 29.032 C 39.391 29.032 40.288 28.095 40.288 26.937 L 40.288 1.803 L 40.288 -3.941 L 40.288 -14.137 C 40.288 -15.294 39.391 -16.232 38.285 -16.232 Z M 36.281 -12.042 L 36.281 -6.036 L -12.424 -6.036 L -12.424 -12.042 L 36.281 -12.042 Z M -12.424 24.842 L -12.424 3.898 L 36.281 3.898 L 36.281 24.842 L -12.424 24.842 L -12.424 24.842 Z" id="Shape"></path><path d="M 7.718 8.62 L -7.513 8.62 C -8.62 8.62 -9.518 9.559 -9.518 10.714 C -9.518 11.872 -8.62 12.809 -7.513 12.809 L 7.718 12.809 C 8.825 12.809 9.723 11.872 9.723 10.714 C 9.723 9.559 8.825 8.62 7.718 8.62 Z" id="Path"></path></g></g></g></g></g></g></g></g></g></g></g></g></g></g></g></g></g></g></g></g></g></g></g></g></g></g></g></g></g></g></symbol><symbol id="credit-cards" viewBox="237.582 177.484 53.188 42.709"><title>C3239C31-D300-419C-9B42-BD9EE48483E5</title><g fill-rule="evenodd" transform="matrix(1, 0, 0, 1, 242.63028, 176.536575)"><g><g><g transform="translate(-696.000000, -833.000000) translate(200.000000, 786.000000) translate(496.000000, 47.000000)"><path fill-rule="nonzero" d="M 6.86 1.278 C 5.107 1.278 3.669 2.77 3.669 4.578 L 3.669 10.018 L -1.615 10.018 C -3.371 10.018 -4.807 11.5 -4.807 13.312 L -4.807 40.146 C -4.807 41.956 -3.371 43.445 -1.618 43.445 L 36.237 43.445 C 37.99 43.445 39.434 41.956 39.434 40.146 L 39.434 34.705 L 44.708 34.705 C 46.462 34.705 47.901 33.225 47.901 31.414 L 47.901 4.578 C 47.901 2.77 46.462 1.278 44.708 1.278 L 6.86 1.278 Z M 6.86 3.217 L 44.709 3.217 C 45.455 3.217 46.025 3.81 46.025 4.578 L 46.025 31.414 C 46.025 32.183 45.455 32.766 44.709 32.766 L 39.439 32.766 L 39.439 13.309 C 39.439 13.084 39.412 12.866 39.37 12.656 C 39.114 11.37 38.126 10.349 36.88 10.085 C 36.672 10.041 36.459 10.018 36.24 10.018 L 5.551 10.018 L 5.551 4.578 C 5.551 3.813 6.117 3.217 6.86 3.217 Z M -1.612 11.957 L 36.24 11.957 C 36.983 11.957 37.557 12.547 37.557 13.315 L 37.557 18.124 L -2.922 18.124 L -2.922 13.309 C -2.922 12.543 -2.358 11.957 -1.612 11.957 Z M -2.925 20.067 L 37.555 20.067 L 37.555 23.771 L -2.925 23.771 L -2.925 20.067 Z M -2.925 25.712 L 37.555 25.712 L 37.555 40.146 C 37.555 40.915 36.983 41.505 36.237 41.505 L -1.611 41.505 C -2.356 41.505 -2.922 40.915 -2.922 40.146 L -2.922 25.712 Z M 24.773 29.912 C 24.254 29.912 23.834 30.349 23.837 30.887 L 23.837 35.907 C 23.837 36.442 24.256 36.875 24.773 36.878 L 31.554 36.878 C 32.07 36.878 32.489 36.442 32.492 35.907 L 32.492 30.885 C 32.492 30.628 32.395 30.382 32.219 30.2 C 32.041 30.015 31.802 29.912 31.554 29.912 L 24.773 29.912 Z M 3.102 30.713 C 2.582 30.713 2.161 31.148 2.161 31.682 C 2.161 32.218 2.582 32.653 3.102 32.653 L 12.963 32.653 C 13.483 32.653 13.904 32.218 13.904 31.682 C 13.904 31.148 13.483 30.713 12.963 30.713 L 3.102 30.713 Z M 25.72 31.851 L 30.61 31.851 L 30.61 34.936 L 25.72 34.936 L 25.72 31.851 Z M 3.102 35.079 C 2.76 35.072 2.443 35.254 2.27 35.557 C 2.098 35.861 2.098 36.236 2.27 36.54 C 2.443 36.843 2.76 37.025 3.102 37.017 L 7.317 37.017 C 7.659 37.025 7.975 36.843 8.146 36.54 C 8.32 36.236 8.32 35.861 8.146 35.557 C 7.975 35.254 7.656 35.072 7.317 35.079 L 3.099 35.079 Z"></path></g></g></g></g></symbol><symbol id="delete" x="0px" y="0px" viewBox="0 0 512 512" style="enable-background:new 0 0 512 512" xml:space="preserve"><g><g><path d="M408.299,98.512l-32.643,371.975H136.344L103.708,98.512l-41.354,3.625l33.232,378.721
			C97.335,498.314,112.481,512,130.076,512h251.849c17.588,0,32.74-13.679,34.518-31.391l33.211-378.472L408.299,98.512z"></path></g></g><g><g><path d="M332.108,0H179.892c-19.076,0-34.595,15.519-34.595,34.595v65.73h41.513V41.513h138.378v58.811h41.513v-65.73
			C366.703,15.519,351.184,0,332.108,0z"></path></g></g><g><g><path d="M477.405,79.568H34.595c-11.465,0-20.757,9.292-20.757,20.757s9.292,20.757,20.757,20.757h442.811
			c11.465,0,20.757-9.292,20.757-20.757S488.87,79.568,477.405,79.568z"></path></g></g><g>
</g><g>
</g><g>
</g><g>
</g><g>
</g><g>
</g><g>
</g><g>
</g><g>
</g><g>
</g><g>
</g><g>
</g><g>
</g><g>
</g><g>
</g></symbol><symbol id="edit" style="enable-background:new 0 0 24 24" viewBox="0 0 24 24" xml:space="preserve"><path d="M19.607,18.746c0,0.881-0.716,1.624-1.597,1.624H5.231c-0.881,0-1.597-0.743-1.597-1.624V5.967  c0-0.881,0.716-1.571,1.597-1.571h7.454V3.332H5.231c-1.468,0-2.662,1.168-2.662,2.636v12.778c0,1.468,1.194,2.688,2.662,2.688  h12.778c1.468,0,2.662-1.221,2.662-2.688v-7.428h-1.065V18.746z"></path><path d="M20.807,3.17c-0.804-0.805-2.207-0.805-3.012,0l-7.143,7.143c-0.068,0.068-0.117,0.154-0.14,0.247L9.76,13.571  c-0.045,0.181,0.008,0.373,0.14,0.506c0.101,0.101,0.237,0.156,0.376,0.156c0.043,0,0.086-0.005,0.129-0.016l3.012-0.753  c0.094-0.023,0.179-0.072,0.247-0.14l7.143-7.143c0.402-0.402,0.624-0.937,0.624-1.506S21.21,3.572,20.807,3.17z M13.016,12.467  l-2.008,0.502l0.502-2.008l5.909-5.909l1.506,1.506L13.016,12.467z M20.054,5.428l-0.376,0.376l-1.506-1.506l0.376-0.376  c0.402-0.402,1.104-0.402,1.506,0c0.201,0.201,0.312,0.468,0.312,0.753C20.366,4.96,20.255,5.227,20.054,5.428z"></path></symbol><symbol id="facebook" style="enable-background:new 0 0 24 24" viewBox="0 0 24 24"><path d="m15.997 3.985h2.191v-3.816c-.378-.052-1.678-.169-3.192-.169-3.159 0-5.323 1.987-5.323 5.639v3.361h-3.486v4.266h3.486v10.734h4.274v-10.733h3.345l.531-4.266h-3.877v-2.939c.001-1.233.333-2.077 2.051-2.077z"></path></symbol><symbol id="filter" viewBox="0 0 17 15"><g fill-rule="evenodd"><g fill-rule="nonzero"><g><g><path d="M4.928 0c-.986 0-1.824.675-2.095 1.6H.591C.246 1.6 0 1.875 0 2.225s.271.625.616.625h2.242c.246.925 1.109 1.6 2.094 1.6 1.01 0 1.848-.675 2.119-1.6h9.091c.345 0 .616-.275.616-.625s-.27-.625-.616-.625H7.071C6.775.675 5.938 0 4.928 0zm.024 1.25c.518 0 .961.425.961.975s-.443.975-.96.975c-.518 0-.962-.425-.962-.975s.444-.975.961-.975zM12.343 5c-.985 0-1.823.675-2.094 1.6H.616c-.37 0-.616.275-.616.625s.271.625.616.625h9.633c.247.925 1.109 1.6 2.094 1.6 1.01 0 1.848-.675 2.12-1.6h1.7c.344 0 .615-.275.615-.625s-.27-.625-.616-.625h-1.7c-.27-.925-1.108-1.6-2.119-1.6zm.025 1.25c.518 0 .961.425.961.975s-.443.975-.96.975c-.518 0-.962-.425-.962-.975s.42-.975.961-.975zM7.884 10.5c-.985 0-1.823.675-2.094 1.6H.616c-.37 0-.616.275-.616.625s.271.625.616.625h5.198c.247.925 1.11 1.6 2.095 1.6 1.01 0 1.848-.675 2.119-1.6h6.134c.345 0 .616-.275.616-.625s-.27-.625-.616-.625h-6.16c-.27-.925-1.108-1.6-2.118-1.6zm.025 1.25c.517 0 .96.425.96.975s-.443.975-.96.975c-.518 0-.961-.425-.961-.975.024-.55.443-.975.96-.975z" transform="translate(-390.000000, -1329.000000) translate(200.000000, 1273.000000) translate(190.000000, 56.000000)"></path></g></g></g></g></symbol><symbol id="find-size" viewBox="222.903 157.991 80.526 94"><title>C3239C31-D300-419C-9B42-BD9EE48483E5</title><g stroke="none" stroke-width="1" fill-rule="evenodd" transform="matrix(1, 0, 0, 1, 243.878098, 185.413559)"><g id="Assets-GUI" transform="translate(-200.000000, -1481.000000)"><g id="Ürün-Detay" transform="translate(200.000000, 1432.000000)"><g id="find_Size" transform="translate(0.000000, 49.000000)"><g id="clothes-hanger" transform="translate(5.000000, 7.000000)" fill-rule="nonzero"><path d="M 49.648 21.924 L 16.522 4.716 L 16.522 3.435 C 16.522 1.975 17.451 0.617 18.948 -0.11 C 22.319 -1.744 24.321 -4.896 24.177 -8.332 C 23.98 -12.977 19.768 -16.754 14.587 -16.931 C 11.846 -17.024 9.251 -16.136 7.278 -14.436 C 5.305 -12.732 4.217 -10.442 4.217 -7.985 C 4.217 -6.836 5.257 -5.906 6.537 -5.906 C 7.818 -5.906 8.859 -6.836 8.859 -7.985 C 8.859 -9.301 9.44 -10.527 10.497 -11.437 C 11.551 -12.348 12.941 -12.824 14.411 -12.772 C 17.181 -12.678 19.433 -10.658 19.539 -8.175 C 19.616 -6.333 18.543 -4.644 16.737 -3.77 C 13.741 -2.314 11.88 0.446 11.88 3.435 L 11.88 4.716 L -21.247 21.924 C -23.811 23.257 -25.406 25.736 -25.406 28.393 C -25.406 32.518 -21.663 35.87 -17.066 35.87 L 45.466 35.87 C 50.066 35.87 53.806 32.518 53.806 28.393 C 53.806 25.736 52.213 23.257 49.648 21.924 L 49.648 21.924 Z M 45.466 31.711 L -17.066 31.711 C -19.105 31.711 -20.764 30.224 -20.764 28.393 C -20.764 27.214 -20.057 26.115 -18.919 25.524 L 14.2 8.318 L 47.321 25.524 C 48.458 26.115 49.164 27.214 49.164 28.393 C 49.164 30.224 47.507 31.711 45.466 31.711 L 45.466 31.711 Z" id="XMLID_1906_"></path></g></g></g></g></g></symbol><symbol id="havale" viewBox="0 0 20 20"><g fill-rule="nonzero"><path d="M8.322 3.6H9.54v3.161l3.704-1.342v.972L9.541 7.732v.524l2.006-.709 1.698-.632v.925c0 .041-.01.062-.03.062l-3.566 1.28c-.041.02-.077.04-.108.06v5.228a4.699 4.699 0 0 0 2.485-1.064 4.67 4.67 0 0 0 1.59-2.42c.112-.442.17-.885.17-1.327h1.234c0 .998-.242 1.938-.725 2.822a5.485 5.485 0 0 1-1.39 1.758 5.885 5.885 0 0 1-1.836 1.11c-.885.339-1.8.457-2.748.354V9.675l-.2.077-2.115.755v-.971l2.315-.833v-.54a8.067 8.067 0 0 1-.818.309l-1.219.447-.1.03c-.067.021-.126.037-.178.047v-.971l2.315-.817V3.6z"></path><path d="M1.95 7.839a8.21 8.21 0 0 1 3.875-5.045 8.35 8.35 0 0 1 6.325-.824c1.5.4 2.8 1.173 3.85 2.272l-.95.55 3.076 1.299.4-3.297-1.05.6A9.943 9.943 0 0 0 5 1.344C.6 3.868-1.125 9.238.75 13.783l1.45-.849a8.44 8.44 0 0 1-.25-5.095zM19.25 6.19l-1.45.85a8.144 8.144 0 0 1 .25 5.12 8.21 8.21 0 0 1-3.874 5.045 8.35 8.35 0 0 1-6.326.824c-1.5-.4-2.8-1.174-3.85-2.273l.975-.574L1.9 13.883l-.4 3.322 1-.575c3.075 3.497 8.3 4.446 12.476 2.023A9.996 9.996 0 0 0 19.25 6.19z"></path></g></symbol><symbol id="heart" viewBox="0 -28 512.001 512"><path d="m256 455.515625c-7.289062 0-14.316406-2.640625-19.792969-7.4375-20.683593-18.085937-40.625-35.082031-58.21875-50.074219l-.089843-.078125c-51.582032-43.957031-96.125-81.917969-127.117188-119.3125-34.644531-41.804687-50.78125-81.441406-50.78125-124.742187 0-42.070313 14.425781-80.882813 40.617188-109.292969 26.503906-28.746094 62.871093-44.578125 102.414062-44.578125 29.554688 0 56.621094 9.34375 80.445312 27.769531 12.023438 9.300781 22.921876 20.683594 32.523438 33.960938 9.605469-13.277344 20.5-24.660157 32.527344-33.960938 23.824218-18.425781 50.890625-27.769531 80.445312-27.769531 39.539063 0 75.910156 15.832031 102.414063 44.578125 26.191406 28.410156 40.613281 67.222656 40.613281 109.292969 0 43.300781-16.132812 82.9375-50.777344 124.738281-30.992187 37.398437-75.53125 75.355469-127.105468 119.308594-17.625 15.015625-37.597657 32.039062-58.328126 50.167969-5.472656 4.789062-12.503906 7.429687-19.789062 7.429687zm-112.96875-425.523437c-31.066406 0-59.605469 12.398437-80.367188 34.914062-21.070312 22.855469-32.675781 54.449219-32.675781 88.964844 0 36.417968 13.535157 68.988281 43.882813 105.605468 29.332031 35.394532 72.960937 72.574219 123.476562 115.625l.09375.078126c17.660156 15.050781 37.679688 32.113281 58.515625 50.332031 20.960938-18.253907 41.011719-35.34375 58.707031-50.417969 50.511719-43.050781 94.136719-80.222656 123.46875-115.617188 30.34375-36.617187 43.878907-69.1875 43.878907-105.605468 0-34.515625-11.605469-66.109375-32.675781-88.964844-20.757813-22.515625-49.300782-34.914062-80.363282-34.914062-22.757812 0-43.652344 7.234374-62.101562 21.5-16.441406 12.71875-27.894532 28.796874-34.609375 40.046874-3.453125 5.785157-9.53125 9.238282-16.261719 9.238282s-12.808594-3.453125-16.261719-9.238282c-6.710937-11.25-18.164062-27.328124-34.609375-40.046874-18.449218-14.265626-39.34375-21.5-62.097656-21.5zm0 0"></path></symbol><symbol id="heart-filled" x="0px" y="0px" viewBox="0 0 512 512" style="enable-background:new 0 0 512 512" xml:space="preserve"><g><g><path d="M376,30c-27.783,0-53.255,8.804-75.707,26.168c-21.525,16.647-35.856,37.85-44.293,53.268
			c-8.437-15.419-22.768-36.621-44.293-53.268C189.255,38.804,163.783,30,136,30C58.468,30,0,93.417,0,177.514
			c0,90.854,72.943,153.015,183.369,247.118c18.752,15.981,40.007,34.095,62.099,53.414C248.38,480.596,252.12,482,256,482
			s7.62-1.404,10.532-3.953c22.094-19.322,43.348-37.435,62.111-53.425C439.057,330.529,512,268.368,512,177.514
			C512,93.417,453.532,30,376,30z"></path></g></g><g>
</g><g>
</g><g>
</g><g>
</g><g>
</g><g>
</g><g>
</g><g>
</g><g>
</g><g>
</g><g>
</g><g>
</g><g>
</g><g>
</g><g>
</g></symbol><symbol id="info" viewBox="0 0 19 19"><g fill-rule="evenodd"><g fill="#A20000" fill-rule="nonzero"><g><g><path d="M17.65 9.5c0 .397-.028.793-.08 1.187.01-.06.016-.12.025-.18-.106.772-.31 1.529-.614 2.247l.067-.162c-.175.41-.378.808-.612 1.188-.115.185-.234.365-.363.54l-.087.12-.054.07c-.072.096.108-.138.033-.043-.067.085-.135.169-.204.252-.282.333-.59.646-.919.934-.076.068-.155.135-.236.2-.039.032-.077.064-.115.093-.038.031-.135.101.043-.034l-.095.072c-.173.13-.351.255-.533.37-.42.267-.858.497-1.315.69l.162-.067c-.718.302-1.474.509-2.247.614l.18-.024c-.787.103-1.587.103-2.375 0l.18.024c-.772-.105-1.528-.31-2.246-.614l.162.067c-.41-.175-.808-.378-1.189-.612-.184-.115-.364-.234-.54-.362l-.12-.088-.069-.054c-.097-.072.137.108.043.034-.086-.068-.169-.135-.252-.205-.333-.282-.646-.59-.935-.919-.067-.076-.135-.155-.2-.236-.031-.038-.063-.077-.092-.115-.032-.038-.102-.135.034.043l-.072-.095c-.131-.173-.255-.35-.37-.533-.268-.419-.497-.858-.69-1.315l.067.162c-.302-.718-.509-1.474-.615-2.246.01.06.016.119.025.18-.104-.788-.104-1.587 0-2.375l-.025.18c.106-.772.31-1.529.615-2.247l-.068.162c.176-.41.378-.808.613-1.188.114-.185.234-.365.362-.54l.088-.12.054-.07c.072-.097-.108.138-.034.043.068-.086.135-.169.205-.252.281-.333.59-.646.918-.934.077-.068.156-.135.237-.2.038-.032.076-.064.115-.093.038-.032.135-.101-.043.034l.094-.072c.174-.13.352-.255.534-.37.419-.267.858-.497 1.315-.69l-.163.067c.719-.302 1.475-.509 2.247-.615-.06.01-.12.016-.18.025.788-.103 1.587-.103 2.375 0l-.18-.025c.772.106 1.528.311 2.247.615l-.163-.068c.41.176.809.379 1.19.613.184.115.364.234.54.362.04.03.078.059.119.088l.07.054c.096.072-.138-.108-.043-.034.085.068.169.135.252.205.333.282.646.59.934.919.068.076.135.155.2.236.032.038.063.076.093.115.031.038.101.135-.034-.043l.072.095c.13.173.254.35.37.533.267.419.497.858.69 1.315l-.067-.162c.301.718.508 1.474.614 2.246l-.024-.18c.051.396.078.793.078 1.189 0 .353.311.69.676.675.364-.016.675-.297.675-.675-.005-1.938-.599-3.877-1.727-5.457-1.136-1.594-2.71-2.803-4.55-3.48-1.845-.68-3.928-.74-5.816-.205-1.821.518-3.494 1.594-4.698 3.057-.64.777-1.144 1.623-1.524 2.553-.372.905-.581 1.866-.658 2.838-.15 1.945.329 3.94 1.342 5.606.977 1.61 2.445 2.94 4.165 3.717.938.423 1.91.69 2.933.81.99.115 1.999.058 2.976-.14 1.862-.378 3.606-1.355 4.919-2.73 1.317-1.38 2.226-3.16 2.512-5.05.076-.504.124-1.01.126-1.52 0-.353-.31-.69-.675-.675-.367.016-.676.298-.676.676z" transform="translate(-270.000000, -1017.000000) translate(200.000000, 957.000000) translate(70.000000, 60.000000)"></path><path d="M10.153 13.812v-1.884-2.99-.687c0-.353-.31-.69-.675-.675-.367.016-.676.297-.676.675v5.561c0 .353.31.69.676.675.367-.016.675-.297.675-.675zM10.153 5.753v-.608c0-.354-.31-.691-.675-.676-.367.016-.676.298-.676.676v.608c0 .353.31.69.676.675.367-.016.675-.297.675-.675z" transform="translate(-270.000000, -1017.000000) translate(200.000000, 957.000000) translate(70.000000, 60.000000)"></path></g></g></g></g></symbol><symbol id="info-filled" viewBox="0 0 19 19"><g fill-rule="evenodd"><g><g><g transform="translate(-309.000000, -1017.000000) translate(200.000000, 957.000000) translate(109.000000, 60.000000)"><rect width="19" height="19" fill="#A20000" rx="9.5"></rect><path fill="#FFF" fill-rule="nonzero" d="M10.153 13.812v-1.884-2.99-.687c0-.353-.31-.69-.675-.675-.367.016-.676.297-.676.675v5.561c0 .353.31.69.676.675.367-.016.675-.297.675-.675zM10.153 5.753v-.608c0-.354-.31-.691-.675-.676-.367.016-.676.298-.676.676v.608c0 .353.31.69.676.675.367-.016.675-.297.675-.675z"></path></g></g></g></g></symbol><symbol id="in-order" viewBox="0 0 30 30"><g fill-rule="evenodd"><g fill-rule="nonzero"><g><path d="M25.81 14.296c-.145-.194-.372-.308-.613-.308H4.806c-.241 0-.468.114-.612.308l-4.04 5.465c-.17.227-.202.531-.082.79.12.257.371.428.654.442l3.532.2v5.37c-.008.355.228.67.57.76l9.976 2.651c.128.035.264.035.392 0l9.977-2.65c.336-.09.57-.396.57-.746V21.19l3.53-.2c.284-.015.535-.186.655-.444s.088-.562-.082-.79l-4.037-5.46zM5.19 15.53h8.432l-2.776 4.487-8.615-.483 2.96-4.004zm.612 5.748l5.427.308h.042c.264 0 .51-.138.65-.364l2.313-3.76v10.753l-8.447-2.243.015-4.694zm18.409 4.694l-8.447 2.243V17.461l2.33 3.767c.139.225.384.363.648.363h.043l5.426-.308v4.688zm.597-10.445l2.96 4.007-8.616.483-2.776-4.49h8.432zM10.917.008c.413-.06.798.221.866.635.092.564.5 2.154 1.25 2.752 1.16.905 2.78.905 3.941 0 .744-.588 1.148-2.182 1.243-2.746.068-.413.453-.696.866-.635.618.092 1.224.25 1.808.475 2.047.783 3.957 1.887 5.66 3.273.272.223.359.604.21.925L24.88 8.832c-.121.28-.395.46-.698.462h-2.824v3.064c0 .425-.343.77-.766.77-.422 0-.765-.345-.765-.77V9.14c0-.766.617-1.387 1.378-1.387h2.488l1.417-3.137c-1.458-1.119-3.066-2.022-4.778-2.681-.258-.1-.521-.183-.79-.25-.232.86-.719 2.2-1.637 2.93-1.711 1.335-4.103 1.335-5.814 0-.922-.733-1.411-2.076-1.644-2.936-.268.067-.532.15-.79.25-1.71.659-3.32 1.562-4.777 2.68l1.43 3.144h2.487c.761 0 1.378.621 1.378 1.387v3.215c0 .425-.343.77-.765.77-.423 0-.766-.345-.766-.77v-3.06H5.82c-.303-.002-.577-.183-.698-.463L3.239 4.705c-.149-.32-.062-.702.21-.924C5.152 2.386 7.062 1.273 9.11.483 9.693.259 10.299.1 10.917.008z" transform="translate(-200.000000, -1011.000000) translate(200.000000, 957.000000) translate(0.000000, 54.000000)"></path></g></g></g></symbol><symbol id="instagram" viewBox="0 0 512.00096 512.00096"><path d="m373.40625 0h-234.8125c-76.421875 0-138.59375 62.171875-138.59375 138.59375v234.816406c0 76.417969 62.171875 138.589844 138.59375 138.589844h234.816406c76.417969 0 138.589844-62.171875 138.589844-138.589844v-234.816406c0-76.421875-62.171875-138.59375-138.59375-138.59375zm108.578125 373.410156c0 59.867188-48.707031 108.574219-108.578125 108.574219h-234.8125c-59.871094 0-108.578125-48.707031-108.578125-108.574219v-234.816406c0-59.871094 48.707031-108.578125 108.578125-108.578125h234.816406c59.867188 0 108.574219 48.707031 108.574219 108.578125zm0 0"></path><path d="m256 116.003906c-77.195312 0-139.996094 62.800782-139.996094 139.996094s62.800782 139.996094 139.996094 139.996094 139.996094-62.800782 139.996094-139.996094-62.800782-139.996094-139.996094-139.996094zm0 249.976563c-60.640625 0-109.980469-49.335938-109.980469-109.980469 0-60.640625 49.339844-109.980469 109.980469-109.980469 60.644531 0 109.980469 49.339844 109.980469 109.980469 0 60.644531-49.335938 109.980469-109.980469 109.980469zm0 0"></path><path d="m399.34375 66.285156c-22.8125 0-41.367188 18.558594-41.367188 41.367188 0 22.8125 18.554688 41.371094 41.367188 41.371094s41.371094-18.558594 41.371094-41.371094-18.558594-41.367188-41.371094-41.367188zm0 52.71875c-6.257812 0-11.351562-5.09375-11.351562-11.351562 0-6.261719 5.09375-11.351563 11.351562-11.351563 6.261719 0 11.355469 5.089844 11.355469 11.351563 0 6.257812-5.09375 11.351562-11.355469 11.351562zm0 0"></path></symbol><symbol id="key" data-name="Layer 1" viewBox="0 0 118.74 122.88"><title>door-key</title><path d="M70,9.81c.14.13.27.26.4.4a34.29,34.29,0,0,1-.21,48.19l-.06.07L100,88.38h0L111.62,100h0l7.12,7.12-11.62,11.61L100,111.62,88.74,122.88,77.12,111.26,88.38,100l-6.14-6.14-13,13L57.65,95.21l13-13L58.47,70.09l-.07.06A34.22,34.22,0,0,1,10,21.75L21.75,10A34.28,34.28,0,0,1,70,9.81ZM61.31,34.2a15.32,15.32,0,0,0-4.47-10.87h0a15.45,15.45,0,0,0-21.76,0L23.32,35.07A15.39,15.39,0,0,0,45.08,56.83L56.83,45.08A15.35,15.35,0,0,0,61.31,34.2Z"></path></symbol><symbol id="logo" viewBox="0 0 246 25"><g fill-rule="evenodd"><g fill="#0A0B09"><g><g><path d="M244.775 8.867l1.006-.757-.097-.124c-.412-.53-.927-.956-1.53-1.267-.603-.312-1.337-.47-2.18-.47-.528 0-1.026.079-1.48.236-.454.156-.856.376-1.19.651-.338.277-.61.614-.808.998-.2.388-.3.816-.3 1.272 0 .535.106.991.32 1.36.21.363.489.674.827.923.333.246.712.454 1.129.62.405.162.828.31 1.252.441.399.13.784.261 1.154.395.358.13.682.291.96.48.269.18.486.402.647.658.156.249.235.562.235.93 0 .355-.07.677-.21.962-.139.288-.334.534-.577.736-.245.202-.538.362-.875.475-.338.112-.709.17-1.102.17-.662 0-1.26-.138-1.78-.41-.52-.272-.973-.676-1.346-1.202l-.094-.131-1.056.787.096.125c.468.616 1.056 1.113 1.745 1.476.693.365 1.513.55 2.435.55.583 0 1.13-.094 1.623-.278.495-.185.927-.438 1.283-.75.36-.318.642-.692.84-1.115.198-.425.298-.887.298-1.372 0-.553-.107-1.03-.319-1.414-.21-.38-.49-.706-.834-.972-.34-.262-.728-.48-1.157-.647-.418-.163-.845-.316-1.268-.457-.388-.13-.765-.259-1.132-.388-.354-.125-.672-.276-.945-.448-.263-.165-.474-.37-.626-.609-.15-.233-.227-.526-.227-.872 0-.299.062-.573.183-.814.123-.244.297-.457.517-.63.224-.177.491-.319.795-.42.306-.103.637-.155.986-.155.616 0 1.15.115 1.588.34.438.224.815.556 1.12.987l.094.13zm-10.628 8.983c.053-.033.1-.074.154-.108V16.19c-.24.22-.496.427-.784.605-.779.484-1.702.728-2.747.728-.72 0-1.398-.135-2.014-.4-.62-.267-1.165-.631-1.621-1.084-.458-.453-.822-.99-1.085-1.595-.263-.602-.396-1.256-.396-1.945 0-.688.133-1.345.396-1.953.263-.61.628-1.149 1.085-1.602.455-.453 1-.817 1.62-1.084.617-.265 1.295-.4 2.015-.4.956 0 1.827.235 2.589.696.349.212.66.457.942.73V7.323c-.107-.071-.21-.15-.324-.214-.47-.268-.982-.481-1.52-.633-.541-.15-1.108-.228-1.687-.228-.885 0-1.724.166-2.498.492-.77.325-1.454.776-2.033 1.34-.58.565-1.042 1.232-1.377 1.983-.335.754-.506 1.573-.506 2.436s.171 1.682.506 2.436c.334.75.797 1.418 1.377 1.982.58.565 1.264 1.016 2.033 1.34.774.327 1.614.493 2.498.493.623 0 1.226-.079 1.794-.234.568-.155 1.099-.38 1.583-.667zm-14.686.883h1.264V6.265h-1.264v12.468zm-10.492-8.432c-.15-.233-.225-.526-.225-.872 0-.299.061-.573.183-.814.123-.244.296-.457.516-.63.224-.177.491-.319.796-.42.304-.103.636-.155.984-.155.617 0 1.15.115 1.589.34.437.224.814.556 1.121.987l.093.13 1.006-.757-.097-.124c-.412-.53-.928-.956-1.529-1.267-.604-.312-1.339-.47-2.183-.47-.526 0-1.023.079-1.477.236-.455.156-.856.376-1.191.651-.338.277-.61.614-.808.998-.2.388-.302.816-.302 1.272 0 .535.109.991.323 1.36.21.363.488.674.826.923.333.246.712.454 1.128.62.406.162.83.31 1.253.441.399.13.784.261 1.155.395.358.13.681.291.959.48.269.18.487.402.647.658.156.249.235.562.235.93 0 .355-.071.677-.21.962-.14.288-.333.534-.577.736-.244.202-.54.362-.876.475-.337.112-.708.17-1.1.17-.663 0-1.261-.138-1.78-.41-.521-.272-.974-.676-1.348-1.202l-.092-.131-1.056.787.095.125c.468.616 1.056 1.113 1.746 1.476.692.365 1.511.55 2.434.55.583 0 1.129-.094 1.624-.278.494-.185.926-.438 1.282-.75.36-.318.643-.692.84-1.115.198-.425.299-.887.299-1.372 0-.553-.108-1.03-.32-1.414-.21-.38-.49-.706-.834-.972-.34-.262-.728-.48-1.157-.647-.419-.163-.845-.316-1.267-.457-.39-.13-.766-.259-1.133-.388-.354-.125-.672-.276-.945-.448-.263-.165-.473-.37-.627-.609zm-11.598 0c-.15-.233-.226-.526-.226-.872 0-.299.062-.573.184-.814.122-.244.296-.457.516-.63.224-.177.491-.319.796-.42.305-.103.636-.155.984-.155.617 0 1.152.115 1.589.34.438.224.815.556 1.121.987l.093.13 1.006-.757-.096-.124c-.413-.53-.928-.956-1.53-1.267-.603-.312-1.339-.47-2.183-.47-.526 0-1.024.079-1.477.236-.455.156-.855.376-1.191.651-.339.277-.61.614-.808.998-.2.388-.3.816-.3 1.272 0 .535.108.991.321 1.36.21.363.488.674.826.923.333.246.713.454 1.128.62.407.162.829.31 1.253.441.398.13.784.261 1.155.395.358.13.68.291.958.48.27.18.488.402.648.658.156.249.235.562.235.93 0 .355-.07.677-.21.962-.14.288-.334.534-.577.736-.245.202-.54.362-.876.475-.337.112-.707.17-1.101.17-.661 0-1.26-.138-1.78-.41-.52-.272-.974-.676-1.347-1.202l-.092-.131-1.056.787.095.125c.468.616 1.056 1.113 1.746 1.476.693.365 1.511.55 2.434.55.583 0 1.13-.094 1.623-.278.495-.185.927-.438 1.283-.75.36-.318.642-.692.84-1.115.198-.425.299-.887.299-1.372 0-.553-.108-1.03-.32-1.414-.21-.38-.49-.706-.833-.972-.339-.262-.729-.48-1.158-.647-.42-.163-.845-.316-1.267-.457-.39-.13-.766-.259-1.133-.388-.354-.125-.672-.276-.944-.448-.263-.165-.474-.37-.628-.609zm-6.53 8.432h1.354l-4.81-12.468h-1.25l-4.81 12.468h1.353l1.302-3.396h5.542l1.32 3.396zm-1.79-4.624h-4.6l2.308-5.97 2.292 5.97zm-18.21 4.624h7.072v-1.227h-5.792V6.266h-1.28v12.467zm-4.36-.883c.052-.033.1-.074.153-.108V16.19c-.241.22-.496.427-.783.605-.78.484-1.704.728-2.748.728-.72 0-1.398-.135-2.015-.4-.618-.267-1.164-.631-1.62-1.084-.457-.453-.823-.99-1.085-1.595-.263-.602-.396-1.256-.396-1.945 0-.688.133-1.345.396-1.953.263-.61.628-1.149 1.085-1.602.456-.453 1-.817 1.62-1.084.617-.265 1.295-.4 2.015-.4.956 0 1.827.235 2.59.696.348.212.659.457.94.73V7.323c-.107-.071-.21-.15-.323-.214-.47-.268-.982-.481-1.52-.633-.54-.15-1.108-.228-1.687-.228-.884 0-1.723.166-2.497.492-.77.325-1.455.776-2.034 1.34-.58.565-1.043 1.232-1.377 1.983-.336.754-.506 1.573-.506 2.436s.17 1.682.506 2.436c.334.75.798 1.418 1.377 1.982.58.565 1.263 1.016 2.034 1.34.774.327 1.613.493 2.497.493.623 0 1.226-.079 1.794-.234.568-.155 1.1-.38 1.584-.667zm-25.89-2.363l7.882-4.322-.047-.184h-9.456l-.093.13 1.445 4.217h-8.301l5.255-9.474.007-.08L135.253 0h-.186l-3.783 10.981h-9.395l-.048.184 7.889 4.325-3.246 9.418.179.079 5.07-9.141 6.63 2.35L143.665 25l.171-.092-3.247-9.42zm-32.327 3.967L113.628 4.5h-8.063v4.004h.543c.866-3.509 1.264-3.509 3.012-3.509h1.266l-5.364 14.977h8.487v-4.859h-.576c-1.036 4.342-1.434 4.342-3.284 4.342h-1.385zm-11.02.517h5.296v-.517h-1.18V5.018h1.18v-.52h-5.296v.52h1.213v14.436h-1.213v.517zm-2.061-7.702c0-6.036-2.65-7.77-6.076-7.77h-4.56v.54h1.198v14.438h-1.198v.494h4.813c3.445 0 5.823-2.679 5.823-7.702zm-3.208-.473c0 6.622-.578 7.68-3.378 7.68V5.04c.288 0 .577-.022.865-.022 2.326 0 2.513 2.567 2.513 6.778zM73.69 19.971h8.642v-5.218h-.577c-.883 4.701-1.28 4.701-2.996 4.701h-.986V5.018h1.443v-.52H73.69v.52h1.18v14.436h-1.18v.517zm-7.702 0h5.296v-.517h-1.179V5.018h1.179v-.52h-5.296v.52h1.214v14.436h-1.214v.517zM63.294 5.018h1.129v-.52h-3.129v.52h1.161l-2.41 7.117-2.038-7.117h1.09v-.52h-5.292v.52h1.146l2.598 8.062v6.352h-.85v.54h4.933v-.54h-.834v-7.14l2.496-7.274zm-11.79 0h.982v-.52h-2.945v.52h1.075v10.608L46.796 4.5H42.24v.519h.95v14.414h-.95v.54H45v-.54h-1.025V5.197l5.3 14.774h2.227V5.018zM34.638 19.97h5.296v-.517h-1.18V5.018h1.18v-.52H34.64v.52h1.215v14.436h-1.215v.517zm-3.079-11.4h.644V4.5h-9.589V8.57h.644c.362-3.283 1.135-3.553 1.91-3.553h.797v14.436h-.848v.517H29.7v-.517h-.848V5.018h.798c.774 0 1.548.27 1.91 3.553zm-18.592 11.4h8.642v-5.218h-.578c-.882 4.701-1.28 4.701-2.994 4.701h-.988V5.018h1.18v-.52h-5.262v.52h1.18v14.436h-1.18v.517zm-6.951 0h5.321v-.517h-1.027L6.83 4.5H4.51l-.019.08V4.5h-1.18v.519h1.078L1.044 19.454H0v.517h3.403v-.517H1.875l1.149-5h3.18l1.085 5H6.017v.517zm.074-6.035H3.142l1.516-6.599 1.433 6.599z" transform="translate(-200.000000, -494.000000) translate(200.000000, 447.000000) translate(0.000000, 47.000000)"></path></g></g></g></g></symbol><symbol id="logout" style="enable-background:new 0 0 48 48" viewBox="0 0 48 48" xml:space="preserve"><g><path d="M41.7,23.3l-8.5-8.5c-0.4-0.4-1-0.4-1.4,0c-0.4,0.4-0.4,1,0,1.4l6.8,6.8H19.1c-0.6,0-1,0.4-1,1s0.4,1,1,1h19.4l-6.8,6.8   c-0.4,0.4-0.4,1,0,1.4c0.2,0.2,0.5,0.3,0.7,0.3s0.5-0.1,0.7-0.3l8.5-8.5c0.2-0.2,0.3-0.4,0.3-0.7S41.9,23.5,41.7,23.3z"></path><path d="M26.1,34.3c-0.5,0-0.9,0.4-0.9,0.9V39c0,0.6-0.5,1.1-1.1,1.1H9c-0.6,0-1.1-0.5-1.1-1.1V9c0-0.6,0.5-1.1,1.1-1.1h15.2   c0.6,0,1.1,0.5,1.1,1.1v3.9c0,0.5,0.4,0.9,0.9,0.9s0.9-0.4,0.9-0.9V9c0-1.6-1.3-2.9-2.9-2.9H9C7.4,6.1,6.1,7.4,6.1,9v30   c0,1.6,1.3,2.9,2.9,2.9h15.2c1.6,0,2.9-1.3,2.9-2.9v-3.8C27,34.7,26.6,34.3,26.1,34.3z"></path></g></symbol><symbol id="message" viewBox="222.903 165.35 80.369 71.923"><title>C3239C31-D300-419C-9B42-BD9EE48483E5</title><g stroke="none" stroke-width="1" fill-rule="evenodd" transform="matrix(1, 0, 0, 1, 243.878098, 185.413559)"><g id="Assets-GUI" transform="translate(-200.000000, -1481.000000)"><g id="Ürün-Detay" transform="translate(200.000000, 1432.000000)"><g id="find_Size" transform="translate(0.000000, 49.000000)"><g id="clothes-hanger" transform="translate(5.000000, 7.000000)" fill-rule="nonzero"><title>B58F168D-DC00-4049-891A-E6556B9A9922</title><g id="g-1" stroke="none" stroke-width="1" fill-rule="evenodd" transform="matrix(1, 0, 0, 1, -11.159998, -15.972013)"><g id="g-2" transform="translate(-900.000000, -1916.000000)"><g id="Ödeme" transform="translate(200.000000, 1757.000000)"><g id="order_Summary_BlackBorder" transform="translate(700.000000, 159.000000)"><g fill-rule="evenodd" transform="matrix(1, 0, 0, 1, -1.311711, -1.000999)"><g><g><g transform="translate(-1140.000000, -833.000000) translate(200.000000, 786.000000) translate(940.000000, 47.000000)"><title>2C352858-823D-4F3C-BAB7-3ED5F24CCA0C</title><g id="g-3" stroke="none" stroke-width="1" fill-rule="evenodd" transform="matrix(1, 0, 0, 1, -1.096023, 0.313153)"><g id="g-4" transform="translate(-264.000000, -1916.000000)"><g id="g-5" transform="translate(200.000000, 1757.000000)"><g id="inBasket_Products_BlackBorder" transform="translate(64.000000, 159.000000)"><g fill-rule="evenodd" transform="matrix(1, 0, 0, 1, 7.793294, 3.800616)"><g><g><g transform="translate(-200.000000, -835.000000) translate(200.000000, 786.000000) translate(0.000000, 49.000000)"><g fill-rule="nonzero" transform="matrix(4.415305, 0, 0, 4.415305, -68.198456, -71.121193)"><path d="M15.525 0H2.475C1.11 0 0 1.072 0 2.39v7.717c0 1.316 1.105 2.387 2.466 2.391V16l5.208-3.502h7.851c1.365 0 2.475-1.072 2.475-2.39V2.39C18 1.072 16.89 0 15.525 0zm1.42 10.107c0 .757-.637 1.372-1.42 1.372H7.343l-3.822 2.57v-2.57H2.475c-.783 0-1.42-.615-1.42-1.372V2.391c0-.757.637-1.372 1.42-1.372h13.05c.783 0 1.42.615 1.42 1.372v7.716z" transform="translate(11.000000, 13.000000)"></path><path d="M4.818 3.601L13.182 3.601 13.182 4.62 4.818 4.62zM4.818 5.774L13.182 5.774 13.182 6.793 4.818 6.793zM4.818 7.948L13.182 7.948 13.182 8.967 4.818 8.967z" transform="translate(11.000000, 13.000000)"></path></g></g></g></g></g></g></g></g></g></g></g></g></g></g></g></g></g></g></g></g></g></g></symbol><symbol id="message-filled" viewBox="-21 -47 682.66669 682"><path d="m552.011719-1.332031h-464.023438c-48.515625 0-87.988281 39.472656-87.988281 87.988281v283.972656c0 48.421875 39.300781 87.824219 87.675781 87.988282v128.871093l185.183594-128.859375h279.152344c48.515625 0 87.988281-39.472656 87.988281-88v-283.972656c0-48.515625-39.472656-87.988281-87.988281-87.988281zm-83.308594 330.011719h-297.40625v-37.5h297.40625zm0-80h-297.40625v-37.5h297.40625zm0-80h-297.40625v-37.5h297.40625zm0 0"></path></symbol><symbol id="next-arrow" viewBox="0 0 16 14"><g fill-rule="evenodd"><g fill-rule="nonzero"><g><path d="M0 7L0.666 7.77 6.072 14 7.901 12.461 4.195 8.187 16 8.187 16 5.813 4.195 5.813 7.901 1.539 6.072 0 0.666 6.23z" transform="translate(-458.000000, -358.000000) translate(200.000000, 295.000000) translate(258.000000, 63.000000) translate(8.000000, 7.000000) scale(-1, 1) translate(-8.000000, -7.000000)"></path></g></g></g></symbol><symbol id="order-return" viewBox="222.903 157.991 80.526 94"><g fill-rule="evenodd" transform="matrix(4.588772, 0, 0, 4.588772, 162.059845, 104.037842)"><g><g><g transform="translate(-548.000000, -833.000000) translate(200.000000, 786.000000) translate(348.000000, 47.000000)"><g fill-rule="nonzero"><path d="M 9.7 1.5 C 14.558 1.5 18.5 5.304 18.5 10 C 18.5 14.696 14.558 18.5 9.7 18.5 C 9.476 18.5 9.294 18.322 9.294 18.102 C 9.294 17.882 9.476 17.705 9.699 17.705 C 14.114 17.705 17.689 14.254 17.689 10 C 17.689 5.746 14.114 2.295 9.7 2.295 C 5.286 2.295 1.71 5.746 1.71 10 C 1.71 10.22 1.53 13.099 1.305 13.099 L -0.325 10.398 L 1.31 12.74 L 2.994 10.398 L 1.433 12.981 L 1.034 9.602 L 3.775 9.602 C 4.104 9.602 4.296 9.966 4.107 10.229 L 1.636 13.666 C 1.473 13.892 1.129 13.89 0.97 13.661 L -1.428 10.225 C -1.613 9.961 -1.42 9.602 -1.094 9.602 L 0.908 9.602 C 1.123 5.092 4.978 1.5 9.7 1.5 Z" transform="translate(13.500000, 12.000000) translate(8.500000, 10.000000) rotate(90.000000) translate(-8.500000, -10.000000)"></path><path d="M4.94 8.784v.81h6.627v-.81H4.94zm-.795-.811h8.217v2.432H4.145V7.973z" transform="translate(13.500000, 12.000000)"></path><path d="M5.206 10.405v3.784h6.096v-3.784H5.206zm-.265-.81h6.626c.293 0 .53.242.53.54v4.324c0 .299-.237.54-.53.54H4.94c-.293 0-.53-.241-.53-.54v-4.324c0-.298.237-.54.53-.54z" transform="translate(13.500000, 12.000000)"></path></g></g></g></g></g></symbol><symbol id="orders" viewBox="0 0 15 15"><g fill-rule="evenodd"><g fill-rule="nonzero"><g><path d="M14.43 3.465L7.805.11 7.803.108c-.295-.147-.645-.144-.938.009l-2.84 1.507c-.024.01-.046.022-.067.036L.554 3.466c-.342.18-.554.53-.554.915v6.237c0 .385.212.736.554.915l6.309 3.348.002.001c.15.078.314.117.478.117.158 0 .315-.036.46-.108l6.626-3.357c.352-.176.571-.53.571-.924V4.39c0-.394-.219-.748-.57-.924zM7.272.895c.043-.022.094-.022.137-.001l6.2 3.141-2.413 1.202-6.061-3.208L7.273.895zm-.376 13.01l-5.933-3.15H.961c-.05-.027-.082-.08-.082-.137v-5.84l6.018 3.138v5.989zm.444-6.748L1.356 4.035l2.842-1.508 6.032 3.192L7.34 7.157zm6.78 3.453c0 .059-.032.112-.085.138l-6.26 3.172V7.922l2.882-1.435V7.99c0 .243.197.44.44.44.242 0 .439-.197.439-.44V6.05l2.584-1.286v5.847z" transform="translate(-521.000000, -499.000000) translate(200.000000, 447.000000) translate(321.000000, 52.000000)"></path></g></g></g></symbol><symbol id="payment" viewBox="249.126 177.72 29.864 42.316"><title>C3239C31-D300-419C-9B42-BD9EE48483E5</title><g fill-rule="evenodd" transform="matrix(1, 0, 0, 1, 242.63028, 176.536575)"><g><g><g transform="translate(-696.000000, -833.000000) translate(200.000000, 786.000000) translate(496.000000, 47.000000)"><g fill-rule="evenodd" transform="matrix(1, 0, 0, 1, -0.008516, -0.536664)"><g><g><g transform="translate(-844.000000, -833.000000) translate(200.000000, 786.000000) translate(644.000000, 47.000000)"><g fill-rule="nonzero" transform="matrix(2.103363, 0, 0, 2.103363, -24.906143, -23.370861)"><path d="M8.333 0H1.667C.747 0 0 .748 0 1.667v12c0 .919.748 1.666 1.667 1.666h6v-.666h-6c-.552 0-1-.449-1-1v-12c0-.552.448-1 1-1h6.666c.552 0 1 .448 1 1v9.666H10V1.667C10 .747 9.252 0 8.333 0z" transform="translate(15.000000, 12.000000)"></path><path d="M13.197 8.879l-3.27-4.087-.521.417 3.27 4.086c.424.53.658 1.196.657 1.875v8.163H8.457c-1.722 0-3.124-1.4-3.124-3.123V15h-.666v1.21c0 2.09 1.7 3.79 3.79 3.79h5.21c.184 0 .333-.149.333-.333V11.17c0-.829-.285-1.643-.803-2.291z" transform="translate(15.000000, 12.000000)"></path><path d="M5.665 7.861c.234.007.452.104.612.274l4.48 4.76.486-.457-4.48-4.76c-.284-.3-.667-.472-1.079-.483-.416-.014-.804.137-1.1.417l-.033.033c-.57.571-.608 1.468-.089 2.087l2.871 3.39v1.031c0 1.842 1.158 3.513 2.883 4.16l.234-.625C8.984 17.139 8 15.718 8 14.153V13c0-.079-.028-.155-.079-.216L4.972 9.302c-.295-.351-.273-.862.067-1.202.17-.16.392-.24.626-.239z" transform="translate(15.000000, 12.000000)"></path><path d="M7.333.667H8.333V9H7.333zM5.667 11H6.667V15H5.667zM5.667.333H6.667V7.666H5.667zM1.667 1.667H2.667V6H1.667zM3.333 1.667H4.333V4.334H3.333zM4 11H2c-.184 0-.333.149-.333.333v2c0 .185.149.334.333.334h2c.184 0 .333-.15.333-.334v-2C4.333 11.15 4.184 11 4 11zm-.333 2H2.333v-1.333h1.334V13z" transform="translate(15.000000, 12.000000)"></path></g></g></g></g></g></g></g></g></g></symbol><symbol id="recycle" viewBox="0 0 16 22"><g fill-rule="evenodd"><g fill-rule="nonzero"><g><path d="M14.676 15.447c.815-1.248 1.253-2.606 1.316-4.073.063-1.466-.25-2.84-.94-4.119-.69-1.28-1.661-2.309-2.915-3.089-1.254-.78-2.633-1.17-4.137-1.17V0L3.487 4.494 8 8.987V5.991c.878 0 1.692.219 2.445.656.752.437 1.363 1.014 1.833 1.732.47.717.721 1.513.752 2.387.032.874-.14 1.716-.517 2.528l2.163 2.153zM8 22l4.513-4.494L8 13.013v2.996c-.878 0-1.692-.203-2.445-.609-.752-.406-1.363-.983-1.833-1.732S3 12.108 2.97 11.234c-.032-.874.14-1.685.517-2.434L1.324 6.647C.51 7.833.071 9.159.008 10.626c-.063 1.466.25 2.855.94 4.165.69 1.311 1.661 2.34 2.915 3.09 1.254.749 2.633 1.123 4.137 1.123V22z" transform="translate(-200.000000, -665.000000) translate(200.000000, 599.000000) translate(0.000000, 66.000000)"></path></g></g></g></symbol><symbol id="sad-face" x="0px" y="0px" width="106.059px" height="106.059px" viewBox="0 0 106.059 106.059" style="enable-background:new 0 0 106.059 106.059" xml:space="preserve"><g><path d="M90.546,15.518C69.858-5.172,36.199-5.172,15.515,15.513C-5.173,36.198-5.171,69.858,15.517,90.547
		c20.682,20.684,54.341,20.684,75.027-0.004C111.23,69.858,111.229,36.2,90.546,15.518z M84.757,84.758
		c-17.494,17.494-45.96,17.496-63.455,0.002c-17.498-17.497-17.496-45.966,0-63.46C38.796,3.807,67.261,3.805,84.759,21.302
		C102.253,38.796,102.251,67.265,84.757,84.758z M77.017,74.001c0.658,1.521-0.042,3.286-1.562,3.943
		c-1.521,0.66-3.286-0.042-3.944-1.562c-2.893-6.689-9.73-11.012-17.421-11.012c-7.868,0-14.747,4.319-17.522,11.004
		c-0.479,1.154-1.596,1.851-2.771,1.851c-0.384,0-0.773-0.074-1.15-0.23c-1.53-0.636-2.255-2.392-1.62-3.921
		c3.71-8.932,12.764-14.703,23.063-14.703C64.174,59.371,73.174,65.113,77.017,74.001z M33.24,38.671
		c0-3.424,2.777-6.201,6.201-6.201c3.423,0,6.2,2.776,6.2,6.201c0,3.426-2.777,6.202-6.2,6.202
		C36.017,44.873,33.24,42.097,33.24,38.671z M61.357,38.671c0-3.424,2.779-6.201,6.203-6.201c3.423,0,6.2,2.776,6.2,6.201
		c0,3.426-2.776,6.202-6.2,6.202S61.357,42.097,61.357,38.671z"></path></g><g>
</g><g>
</g><g>
</g><g>
</g><g>
</g><g>
</g><g>
</g><g>
</g><g>
</g><g>
</g><g>
</g><g>
</g><g>
</g><g>
</g><g>
</g></symbol><symbol id="search" viewBox="0 0 15 15"><g fill-rule="evenodd"><g fill-rule="nonzero"><g><path d="M3.305.884C5.895-.61 9.167-.178 11.28 1.938c2.408 2.408 2.574 6.249.443 8.851l-.046.054L15 14.167l-.833.833-3.324-3.325-.077.067c-1.027.832-2.279 1.335-3.591 1.446l-.282.017-.284.006C3.62 13.213 1 11.205.226 8.316S.715 2.379 3.305.884zm-.533 1.887C.661 4.89.665 8.32 2.781 10.437c2.116 2.116 5.545 2.12 7.665.01 2.116-2.117 2.116-5.56 0-7.676-2.119-2.12-5.555-2.12-7.674 0z" transform="translate(-486.000000, -499.000000) translate(200.000000, 447.000000) translate(286.000000, 52.000000)"></path></g></g></g></symbol><symbol id="secure" viewBox="237.582 167.111 58.448 74.859"><title>C3239C31-D300-419C-9B42-BD9EE48483E5</title><g stroke="none" stroke-width="1" fill-rule="evenodd" transform="matrix(1, 0, 0, 1, 243.878098, 185.413559)"><g id="Assets-GUI" transform="translate(-200.000000, -1481.000000)"><g id="Ürün-Detay" transform="translate(200.000000, 1432.000000)"><g id="find_Size" transform="translate(0.000000, 49.000000)"><g id="clothes-hanger" transform="translate(5.000000, 7.000000)" fill-rule="nonzero"><title>B58F168D-DC00-4049-891A-E6556B9A9922</title><g id="g-1" stroke="none" stroke-width="1" fill-rule="evenodd" transform="matrix(1, 0, 0, 1, -11.159998, -15.972013)"><g id="g-2" transform="translate(-900.000000, -1916.000000)"><g id="Ödeme" transform="translate(200.000000, 1757.000000)"><g id="order_Summary_BlackBorder" transform="translate(700.000000, 159.000000)"><g fill-rule="evenodd" transform="matrix(1, 0, 0, 1, -1.311711, -1.000999)"><g><g><g transform="translate(-1140.000000, -833.000000) translate(200.000000, 786.000000) translate(940.000000, 47.000000)"><title>2C352858-823D-4F3C-BAB7-3ED5F24CCA0C</title><g id="g-3" stroke="none" stroke-width="1" fill-rule="evenodd" transform="matrix(1, 0, 0, 1, -1.096023, 0.313153)"><g id="g-4" transform="translate(-264.000000, -1916.000000)"><g id="g-5" transform="translate(200.000000, 1757.000000)"><g id="inBasket_Products_BlackBorder" transform="translate(64.000000, 159.000000)"><g fill-rule="evenodd" transform="matrix(1, 0, 0, 1, 7.793294, 3.800616)"><g><g><g transform="translate(-200.000000, -835.000000) translate(200.000000, 786.000000) translate(0.000000, 49.000000)"><title>C3239C31-D300-419C-9B42-BD9EE48483E5</title><g fill-rule="evenodd" transform="matrix(1, 0, 0, 1, -6.344975, 0.113778)"><g><g><g transform="translate(-1288.000000, -833.000000) translate(200.000000, 786.000000) translate(1088.000000, 47.000000)"><g fill-rule="nonzero" transform="matrix(3.681204, 0, 0, 3.681204, -50.131733, -56.244244)"><path d="M15.376 4.05L7.859.043c-.112-.06-.245-.059-.356.002L.194 4.052C.074 4.117 0 4.243 0 4.38v5.232c.004 4.3 2.553 8.192 6.493 9.915l1.015.442c.094.041.202.041.297 0l1.144-.493c4.013-1.686 6.625-5.615 6.625-9.968V4.38c0-.138-.076-.266-.198-.33zm-.55 5.458c-.001 4.053-2.433 7.71-6.17 9.28h-.003l-.995.43-.865-.377C3.125 17.237.753 13.615.748 9.61v-5.01L7.685.8l7.14 3.805v4.904z" transform="translate(14.000000, 12.000000)"></path><path d="M4.924 9.37c-.134-.158-.37-.177-.527-.042-.158.134-.176.37-.042.527l1.977 2.315c.132.155.363.176.52.047l4.604-3.745c.16-.13.185-.366.055-.527-.13-.16-.367-.184-.527-.054l-4.32 3.515-1.74-2.037z" transform="translate(14.000000, 12.000000)"></path></g></g></g></g></g></g></g></g></g></g></g></g></g></g></g></g></g></g></g></g></g></g></g></g></g></g></symbol><symbol id="size-table" viewBox="249.126 177.72 29.785 29.751"><title>C3239C31-D300-419C-9B42-BD9EE48483E5</title><g fill-rule="evenodd" transform="matrix(1, 0, 0, 1, 242.63028, 176.536575)"><g><g><g transform="translate(-696.000000, -833.000000) translate(200.000000, 786.000000) translate(496.000000, 47.000000)"><g fill-rule="evenodd" transform="matrix(1, 0, 0, 1, -0.008516, -0.536664)"><g><g><g transform="translate(-844.000000, -833.000000) translate(200.000000, 786.000000) translate(644.000000, 47.000000)"><g fill-rule="evenodd" transform="matrix(1, 0, 0, 1, 8.094348, 10.607342)"><g><g><g transform="translate(-242.000000, -1481.000000) translate(200.000000, 1432.000000) translate(42.000000, 49.000000)"><g fill-rule="nonzero" transform="matrix(2.924122, 0, 0, 2.924122, -18.847929, -26.230925)"><path d="M7.739 7.383c-.202-.188-.392-.386-.57-.593l-.033-.036C6.715 6.213 6.082 5.49 5.24 4.587L4.145 3.262l-.01-.009-1.085-1.2c-.053-.06-.13-.097-.212-.104-.083-.007-.165.016-.23.065-.033.03-.06.064-.08.102-.017.009-.034.02-.048.032-.677.658-1.399 1.304-2.168 1.936l-.01.009c-.103.085-.189.187-.254.3-.03.06-.047.125-.048.191 0 .056.013.11.039.16l.016.042c.048.094.108.181.177.262l.022.024c.827.839 1.607 1.715 2.338 2.626l.013.015 1.582 1.71.003.002c.159.176.34.333.54.468.07.04.152.056.233.041l-.016.051c.13.035.27.008.373-.071.04-.029.076-.06.11-.096.09-.077.277-.268.566-.577.654-.593 1.025-.923 1.102-.983.023-.013.044-.028.064-.045.152-.16.261-.27.332-.339.092.009.183-.022.248-.083.059-.054.092-.128.091-.205 0-.077-.034-.15-.094-.203zm-1.015.414c-.003 0-.006 0-.006.003-.048.032-.168.137-.364.31-.193.172-.464.413-.808.726l-.017.018c-.257.273-.421.443-.502.518-.133-.1-.256-.21-.367-.33L3.085 7.34c-.737-.92-1.524-1.803-2.357-2.65C.7 4.66.676 4.627.654 4.593c.025-.03.053-.058.083-.083.728-.602 1.411-1.212 2.058-1.835l.854.947.077.093c-.054.008-.106.03-.148.062l-1.034.849c-.084.068-.122.173-.1.275.022.102.101.185.208.217.106.033.224.011.308-.058l1.037-.848c.028-.027.052-.057.07-.09l.538.653c-.014.006-.028.014-.042.023-.026.026-.054.05-.083.072-.09.065-.216.16-.377.286l-.003.003c-.024.017-.046.037-.065.06h-.003l-.02.023c-.109.124-.089.307.046.408.134.101.332.082.44-.042 0-.003.004-.006.01-.009.152-.122.274-.208.358-.27.003-.004.01-.007.013-.01.026-.02.064-.053.12-.1.292.318.566.615.801.883-.003.003-.01.006-.013.01-.01.005-.02.012-.029.02-.125.122-.243.25-.354.384l-.448.438-.006.006c-.039.042-.11.125-.21.256v.003c-.028.037-.05.077-.067.12-.06.146.018.31.176.369.158.058.337-.011.404-.156V7.55h.003c.083-.11.138-.18.158-.2l.454-.444.016-.018c.094-.114.196-.225.302-.33.168.196.322.381.448.545l.013.012.032.038c.11.126.22.245.325.355-.074.071-.17.17-.28.289zM4.88 5.318L4.88 5.318 4.879 5.319zM9.874 6.144c-.019.013-.04.023-.061.03-.077.098-.212.142-.338.11-.012-.006-.026-.009-.04-.009h-.002c-.13-.018-.22-.033-.274-.045-.005 0-.01 0-.013-.003h-.01c-.035-.008-.116-.03-.241-.065h-.007v-.003c-.043-.011-.085-.025-.125-.042-.161-.06-.239-.229-.174-.378s.248-.22.409-.16c.006.004.012.007.02.008L6.29 2.61l-.004-.006-1.124-1.295c.004.047.01.101.013.164.008.104-.045.203-.14.261-.093.058-.214.065-.314.018-.101-.046-.167-.14-.174-.244-.003-.083-.01-.152-.016-.202-.016-.152-.026-.25-.032-.295L4.493.978C4.48.895 4.463.821 4.45.755 4.418.621 4.393.508 4.37.419V.416c-.018-.073-.01-.15.025-.218.023-.045.059-.084.103-.113.094-.087.237-.11.357-.056.015.006.03.01.046.014l.006.003c.187.06.422.128.705.206l.003.003c.071.02.136.039.197.06.164.052.25.217.193.369-.057.15-.236.23-.4.178C5.595.86 5.582.853 5.569.85l1.205 1.39L9.19 4.883c.011-.154.15-.272.317-.268.166.003.3.126.305.28.003.062.003.104.006.125l.055.408v.003c.003.02.01.053.016.098.009.065.026.129.051.19l-.006-.006c.028.035.046.076.052.12.038.115-.007.24-.113.312z" transform="translate(6.000000, 6.000000)"></path></g></g></g></g></g></g></g></g></g></g></g></g></g></symbol><symbol id="star" x="0px" y="0px" viewBox="0 0 512 512" style="enable-background:new 0 0 512 512" xml:space="preserve"><g><g><path d="M512,197.819l-185.933-12.228L256,9.571l-70.067,176.021L0,197.82l142.658,120.93L95.856,502.429L256,401.214
			l160.144,101.215l-46.8-183.671L512,197.819z M256,365.724l-112.464,71.08l32.827-128.831L75.829,222.888l130.971-8.603
			L256,90.687l49.2,123.599l131.124,8.602l-100.689,85.077l32.829,128.839L256,365.724z"></path></g></g><g>
</g><g>
</g><g>
</g><g>
</g><g>
</g><g>
</g><g>
</g><g>
</g><g>
</g><g>
</g><g>
</g><g>
</g><g>
</g><g>
</g><g>
</g></symbol><symbol id="star-filled" x="0px" y="0px" viewBox="0 0 512 512" style="enable-background:new 0 0 512 512" xml:space="preserve"><g><g><polygon points="512,197.816 325.961,185.585 255.898,9.569 185.835,185.585 0,197.816 142.534,318.842 95.762,502.431
			255.898,401.21 416.035,502.431 369.263,318.842 		"></polygon></g></g><g>
</g><g>
</g><g>
</g><g>
</g><g>
</g><g>
</g><g>
</g><g>
</g><g>
</g><g>
</g><g>
</g><g>
</g><g>
</g><g>
</g><g>
</g></symbol><symbol id="stitch" viewBox="0 0 24 18"><g fill-rule="evenodd"><g fill-rule="nonzero"><g><g><path d="M21.499 8c.276 0 .5-.224.5-.5v-5c0-.276-.224-.5-.5-.5s-.5.224-.5.5v5c0 .276.224.5.5.5zM2.999 9.909V12.5c0 .276.224.5.5.5s.5-.224.5-.5V9.908c.581-.207 1-.757 1-1.408v-7c0-.827-.673-1.5-1.5-1.5s-1.5.673-1.5 1.5v7c0 .651.419 1.201 1 1.409z" transform="translate(-236.000000, -667.000000) translate(200.000000, 599.000000) translate(36.000000, 68.000000)"></path><path d="M22.499 14h-1c.276 0 .5-.224.5-.5s-.224-.5-.5-.5h-.715c-.344-.692-.785-2.595-.785-3.5 0-.352.167-.77.36-1.253.285-.715.64-1.605.64-2.747 0-1.978-1.452-3.227-3-3.453V.5c0-.276-.224-.5-.5-.5s-.5.224-.5.5v1.521c-.949.06-2.571.254-4.283.459-2.136.255-4.344.52-5.217.52-.274 0-.548-.042-.861-.133-.152-.044-.314-.013-.439.081-.126.095-.2.243-.2.4V6.86c0 .158.074.306.201.4.125.094.289.122.441.079.681-.201 1.52-.308 2.426-.308 2.388 0 4.673.711 5.556 1.73.316.365.441.747.381 1.167-.089.625-.437 2.141-1.68 3.071H12.5c-.276 0-.5.224-.5.5s.224.5.5.5h-11C.673 14 0 14.672 0 15.5v1c0 .826.673 1.5 1.5 1.5h21c.827 0 1.5-.673 1.5-1.5v-1c-.001-.827-.674-1.5-1.501-1.5z" transform="translate(-236.000000, -667.000000) translate(200.000000, 599.000000) translate(36.000000, 68.000000)"></path></g></g></g></g></symbol><symbol id="success" viewBox="0 0 44 44"><g fill-rule="evenodd"><g fill="#0C7700" fill-rule="nonzero"><g><g><path d="M37.576 6.51C33.255 2.17 28.067 0 22.014 0c-6.11 0-11.307 2.17-15.59 6.51C2.141 10.793 0 15.961 0 22.014c0 6.11 2.141 11.298 6.424 15.562C10.707 41.859 15.904 44 22.014 44c6.053 0 11.24-2.141 15.562-6.424C41.859 33.312 44 28.125 44 22.014c0-6.053-2.141-11.221-6.424-15.504m-8.114 7.438c.374.25.62.577.74.982.102.39.042.764-.179 1.123l-8.445 13.823c-.324.25-.732.374-1.225.374-.374 0-.647-.055-.817-.164-.323-.202-.57-.475-.74-.818l-4.567-4.21c-.663-.593-.638-1.217.077-1.872.272-.25.595-.374.97-.374.39-.047.722.055.994.304l3.598 3.298 7.297-11.858c.273-.406.621-.655 1.046-.749.443-.109.86-.062 1.25.14z" transform="translate(-556.000000, -1004.000000) translate(200.000000, 957.000000) translate(356.000000, 47.000000)"></path></g></g></g></g></symbol><symbol id="success-order" viewBox="0 0 56 72"><g fill-rule="evenodd"><g fill="#0C7700" fill-rule="nonzero"><g><g><path d="M55.962 68.993L51.845 20.2c-.112-1.333-1.161-2.353-2.418-2.353h-8.49v-4.075C40.937 6.179 35.132 0 27.997 0c-7.136 0-12.94 6.179-12.94 13.773v4.075H6.56c-1.257 0-2.306 1.02-2.418 2.353L.01 69.185c-.061.723.166 1.44.626 1.975.46.535 1.11.84 1.792.84H53.567c1.34 0 2.428-1.157 2.428-2.584 0-.144-.011-.286-.033-.423zm-36.049-55.22c0-4.744 3.626-8.604 8.084-8.604 4.457 0 8.084 3.86 8.084 8.604v4.075H19.913v-4.075zm-4.856 9.243v4.622c0 1.427 1.087 2.584 2.428 2.584s2.428-1.157 2.428-2.584v-4.622h16.168v4.622c0 1.427 1.087 2.584 2.428 2.584 1.342 0 2.429-1.157 2.429-2.584v-4.622h6.27l3.696 43.816H5.084l3.697-43.816h6.276zM32.96 37.863c-.022.029-.044.059-.064.09l-7.592 11.112-2.632-2.154c-.968-.792-2.395-.649-3.187.32-.026.03-.05.062-.075.095-.79 1.08-.595 2.59.445 3.432L26.324 56 36.67 40.81c.745-1.095.502-2.582-.554-3.382-.991-.751-2.403-.556-3.154.435z" transform="translate(-1084.000000, -1804.000000) translate(200.000000, 1757.000000) translate(884.000000, 47.000000)"></path></g></g></g></g></symbol><symbol id="summary" viewBox="222.903 157.991 80.526 94"><title>C3239C31-D300-419C-9B42-BD9EE48483E5</title><g stroke="none" stroke-width="1" fill-rule="evenodd" transform="matrix(1, 0, 0, 1, 243.878098, 185.413559)"><g id="Assets-GUI" transform="translate(-200.000000, -1481.000000)"><g id="Ürün-Detay" transform="translate(200.000000, 1432.000000)"><g id="find_Size" transform="translate(0.000000, 49.000000)"><g id="clothes-hanger" transform="translate(5.000000, 7.000000)" fill-rule="nonzero"><title>B58F168D-DC00-4049-891A-E6556B9A9922</title><g id="g-1" stroke="none" stroke-width="1" fill-rule="evenodd" transform="matrix(1, 0, 0, 1, -11.159998, -15.972013)"><g id="g-2" transform="translate(-900.000000, -1916.000000)"><g id="Ödeme" transform="translate(200.000000, 1757.000000)"><g id="order_Summary_BlackBorder" transform="translate(700.000000, 159.000000)"><g id="Group-3" transform="matrix(5.171803, 0, 0, 5.171803, -5.773402, -18.160105)" fill-rule="nonzero"><path d="M2.88409479,5.57172512 L6.25171564,5.57172512 C6.60514692,5.57172512 6.89152607,5.28526066 6.89152607,4.93191469 C6.89152607,4.57856872 6.60514692,4.29210427 6.25171564,4.29210427 L2.88409479,4.29210427 C2.53074882,4.29210427 2.24428436,4.57856872 2.24428436,4.93191469 C2.24428436,5.28517536 2.53074882,5.57172512 2.88409479,5.57172512 Z" id="Path"></path><path d="M9.27716588,6.99474882 L2.88409479,6.99474882 C2.53074882,6.99474882 2.24428436,7.28121327 2.24428436,7.63455924 C2.24428436,7.98790521 2.53074882,8.27436967 2.88409479,8.27436967 L9.27716588,8.27436967 C9.63059716,8.27436967 9.9169763,7.98790521 9.9169763,7.63455924 C9.9169763,7.28121327 9.63059716,6.99474882 9.27716588,6.99474882 Z" id="Path"></path><path d="M2.88409479,10.9776114 L7.43672986,10.9776114 C7.79016114,10.9776114 8.07654028,10.6911469 8.07654028,10.3378009 C8.07654028,9.98445498 7.79016114,9.69799052 7.43672986,9.69799052 L2.88409479,9.69799052 C2.53074882,9.69799052 2.24428436,9.98445498 2.24428436,10.3378009 C2.24428436,10.6911469 2.53074882,10.9776114 2.88409479,10.9776114 Z" id="Path"></path><path d="M9.27716588,12.4009763 L2.88409479,12.4009763 C2.53074882,12.4009763 2.24428436,12.6874408 2.24428436,13.0407867 C2.24428436,13.3941327 2.53074882,13.6805972 2.88409479,13.6805972 L9.27716588,13.6805972 C9.63059716,13.6805972 9.9169763,13.3941327 9.9169763,13.0407867 C9.9169763,12.6874408 9.63059716,12.4009763 9.27716588,12.4009763 Z" id="Path"></path><path d="M11.815066,1.55018497 L10.4728007,0.187707031 C10.3544497,0.0674959283 10.1938425,0 10.0264171,0 C9.85899172,0 9.69838453,0.0674959283 9.57994935,0.187707031 L8.68415182,1.09702243 L7.78827012,0.187707031 C7.66983495,0.0674959283 7.50922776,0 7.34180234,0 C7.17437692,0 7.01376974,0.0674959283 6.89533456,0.187707031 L5.99962121,1.09693699 L5.10407621,0.187707031 C4.98564103,0.0674959283 4.82503385,0 4.65752425,0 C4.49009884,0 4.32949165,0.0674959283 4.21105647,0.187792469 L3.31567982,1.09693699 L2.41988229,0.187707031 C2.3015313,0.0674959283 2.14092411,0 1.97349869,0 C1.80607327,0 1.64546609,0.0674959283 1.52703091,0.187707031 L0.184849781,1.55018497 C0.066498783,1.67031063 0,1.83332611 0,2.00326207 L0,15.9971331 C0,16.167069 0.0665829586,16.3300845 0.184933957,16.4502956 L1.52711509,17.8123464 C1.77358146,18.0625939 2.17324757,18.0625085 2.41979812,17.8123464 L3.315764,16.9031164 L4.21181406,17.8123464 C4.33024923,17.932472 4.49085642,18 4.65828183,18 C4.82570725,18 4.98631444,17.9323866 5.10466544,17.8121755 L5.99978956,16.9032873 L6.89550291,17.8122609 C7.14196929,18.0625085 7.54163539,18.0624231 7.78818594,17.8122609 L8.684236,16.9031164 L9.58011771,17.8122609 C9.70335089,17.937342 9.86496819,18 10.0265013,18 C10.1880344,18 10.3496517,17.937342 10.4728849,17.8122609 L11.815066,16.4502102 C11.9335012,16.3300845 12,16.167069 12,15.9970476 L12,2.00326207 C12,1.83332611 11.933417,1.67039607 11.815066,1.55018497 Z M10.7372807,15.7316776 L10.0264171,16.4531151 L9.13053543,15.5439705 C8.8839007,15.293723 8.48440295,15.2938084 8.2378524,15.5439705 L7.34188652,16.4531151 L6.44608899,15.5439705 C6.32765381,15.4237594 6.1671308,15.3562635 5.99962121,15.356349 C5.83219579,15.356349 5.67158861,15.4238449 5.55323761,15.5441414 L4.65811348,16.4531151 L3.76223178,15.5439705 C3.51568123,15.2938084 3.1160993,15.2938084 2.86954875,15.5439705 L1.97358287,16.4531151 L1.2627193,15.7316776 L1.2627193,2.26871757 L1.97358287,1.54702377 L2.8693804,2.45633916 C2.98781557,2.57655027 3.14842276,2.6440462 3.31584818,2.6440462 C3.48335777,2.6440462 3.64388078,2.57646483 3.76231595,2.45625373 L4.6576926,1.54702377 L5.55323761,2.45633916 C5.67158861,2.57655027 5.83219579,2.6440462 5.99970539,2.6440462 C6.16721498,2.6440462 6.32773799,2.57655027 6.44617316,2.45633916 L7.34188652,1.54702377 L8.2378524,2.45633916 C8.35628757,2.57655027 8.51681058,2.6440462 8.68432018,2.6440462 C8.85174559,2.6440462 9.01235278,2.57655027 9.13078795,2.45633916 L10.0265855,1.54702377 L10.7374491,2.26863213 L10.7374491,15.7316776 L10.7372807,15.7316776 Z" id="Shape"></path></g></g></g></g></g></g></g></g></g></g></symbol><symbol id="summary-2" viewBox="221.924 165.35 81.348 81.122"><title>C3239C31-D300-419C-9B42-BD9EE48483E5</title><g stroke="none" stroke-width="1" fill-rule="evenodd" transform="matrix(1, 0, 0, 1, 243.878098, 185.413559)"><g id="Assets-GUI" transform="translate(-200.000000, -1481.000000)"><g id="Ürün-Detay" transform="translate(200.000000, 1432.000000)"><g id="find_Size" transform="translate(0.000000, 49.000000)"><g id="clothes-hanger" transform="translate(5.000000, 7.000000)" fill-rule="nonzero"><title>B58F168D-DC00-4049-891A-E6556B9A9922</title><g id="g-1" stroke="none" stroke-width="1" fill-rule="evenodd" transform="matrix(1, 0, 0, 1, -11.159998, -15.972013)"><g id="g-2" transform="translate(-900.000000, -1916.000000)"><g id="Ödeme" transform="translate(200.000000, 1757.000000)"><g id="order_Summary_BlackBorder" transform="translate(700.000000, 159.000000)"><g fill-rule="evenodd" transform="matrix(1, 0, 0, 1, -1.311711, -1.000999)"><g><g><g transform="translate(-1140.000000, -833.000000) translate(200.000000, 786.000000) translate(940.000000, 47.000000)"><title>2C352858-823D-4F3C-BAB7-3ED5F24CCA0C</title><g id="g-3" stroke="none" stroke-width="1" fill-rule="evenodd" transform="matrix(1, 0, 0, 1, -1.096023, 0.313153)"><g id="g-4" transform="translate(-264.000000, -1916.000000)"><g id="g-5" transform="translate(200.000000, 1757.000000)"><g id="inBasket_Products_BlackBorder" transform="translate(64.000000, 159.000000)"><g fill-rule="evenodd" transform="matrix(1, 0, 0, 1, 7.793294, 3.800616)"><g><g><g transform="translate(-200.000000, -835.000000) translate(200.000000, 786.000000) translate(0.000000, 49.000000)"><title>C3239C31-D300-419C-9B42-BD9EE48483E5</title><g id="g-6" stroke="none" stroke-width="1" fill-rule="evenodd" transform="matrix(1, 0, 0, 1, 0.326125, 13.688062)"><g id="g-7" transform="translate(-200.000000, -1481.000000)"><g id="g-8" transform="translate(200.000000, 1432.000000)"><g id="g-9" transform="translate(0.000000, 49.000000)"><g id="g-10" transform="translate(5.000000, 7.000000)" fill-rule="nonzero"><title>B58F168D-DC00-4049-891A-E6556B9A9922</title><g id="g-11" stroke="none" stroke-width="1" fill-rule="evenodd" transform="matrix(1, 0, 0, 1, -11.159998, -15.972013)"><g id="g-12" transform="translate(-900.000000, -1916.000000)"><g id="g-13" transform="translate(200.000000, 1757.000000)"><g id="g-14" transform="translate(700.000000, 159.000000)"><g fill-rule="evenodd" transform="matrix(1, 0, 0, 1, -1.311711, -1.000999)"><g><g><g transform="translate(-1140.000000, -833.000000) translate(200.000000, 786.000000) translate(940.000000, 47.000000)"><g fill-rule="nonzero" transform="matrix(4.435964, 0, 0, 4.435964, -66.440262, -74.88662)"><path d="M15.804 0H5.33C4.14 0 3.18.97 3.156 2.172l-.091 10.837H2.013C.892 13.009 0 13.933 0 15.042 0 16.614 1.19 17.908 2.745 18H15.05c1.623 0 2.927-1.317 2.95-2.958V2.195C17.977.97 17.017 0 15.804 0zM2.928 17.33c-1.235 0-2.242-1.017-2.242-2.265 0-.739.595-1.34 1.327-1.34h10.109v1.34c0 .879.389 1.71 1.052 2.265H2.928zm12.122 0c-1.236 0-2.242-1.017-2.242-2.265V13.38c0-.185-.16-.347-.343-.347H3.751l.091-10.837c0-.832.687-1.479 1.487-1.479h10.475c.824 0 1.487.67 1.487 1.502v12.87c0 1.225-1.006 2.242-2.241 2.242z" transform="translate(12.000000, 13.000000)"></path><path d="M6.335 4.32h4.003c.183 0 .343-.16.343-.346 0-.185-.16-.346-.343-.346H6.335c-.183 0-.343.161-.343.346 0 .185.138.347.343.347zM14.455 6.632h-8.12c-.183 0-.343.161-.343.346 0 .185.16.347.343.347h8.12c.183 0 .343-.162.343-.347 0-.185-.16-.346-.343-.346zM14.455 9.635h-8.12c-.183 0-.343.162-.343.347 0 .185.16.347.343.347h8.12c.183 0 .343-.162.343-.347 0-.185-.16-.347-.343-.347z" transform="translate(12.000000, 13.000000)"></path></g></g></g></g></g></g></g></g></g></g></g></g></g></g></g></g></g></g></g></g></g></g></g></g></g></g></g></g></g></g></g></g></g></g></g></symbol><symbol id="tag" x="0px" y="0px" viewBox="0 0 442.688 442.688" style="enable-background:new 0 0 442.688 442.688" xml:space="preserve"><g><g><path d="M442.666,178.822l-4.004-145.078c-0.447-16.222-13.504-29.279-29.727-29.728l-145.08-4.004
			c-8.475-0.237-16.493,2.97-22.468,8.945L8.954,241.391c-11.924,11.924-11.924,31.325,0,43.249l149.083,149.082
			c11.951,11.953,31.296,11.956,43.25,0.001L433.721,201.29C439.636,195.374,442.897,187.184,442.666,178.822z M376.238,139.979
			c-20.323,20.322-53.215,20.324-73.539,0c-20.275-20.275-20.275-53.265,0-73.539c20.323-20.323,53.215-20.324,73.539,0
			C396.512,86.714,396.512,119.704,376.238,139.979z"></path></g></g><g>
</g><g>
</g><g>
</g><g>
</g><g>
</g><g>
</g><g>
</g><g>
</g><g>
</g><g>
</g><g>
</g><g>
</g><g>
</g><g>
</g><g>
</g></symbol><symbol id="truck" viewBox="0 0 26 16"><g fill-rule="evenodd"><g fill-rule="nonzero"><g><path d="M20.538 16c.906 0 1.676-.296 2.308-.889.633-.592.949-1.294.949-2.105H26V8l-3.282-3.977h-3.282V0H6.308C5.692 0 5.17.195 4.744.585c-.428.39-.641.865-.641 1.427H0l.974 1.497h8l.667 1.497H1.128l.82 1.497h5.334L7.95 8H2.205l.82 1.497h1.078v3.509h2.205c0 .81.316 1.513.948 2.105.633.593 1.41.889 2.334.889.923 0 1.7-.296 2.333-.889.633-.592.949-1.294.949-2.105h4.359c0 .81.325 1.513.974 2.105.65.593 1.427.889 2.333.889zm3.77-8h-4.872V5.52h2.718L24.308 8zm-3.795 6.503c-.445 0-.83-.148-1.154-.445-.325-.296-.487-.654-.487-1.076 0-.42.162-.771.487-1.052.325-.28.718-.421 1.18-.421.461 0 .846.14 1.153.42.308.282.462.632.462 1.053 0 .422-.154.78-.462 1.076-.307.297-.7.445-1.18.445zm-10.923 0c-.445 0-.83-.148-1.154-.445-.325-.296-.487-.654-.487-1.076 0-.42.162-.771.487-1.052.325-.28.71-.421 1.154-.421.444 0 .829.14 1.154.42.324.282.487.632.487 1.053 0 .422-.163.78-.487 1.076-.325.297-.71.445-1.154.445z" transform="translate(-280.000000, -668.000000) translate(200.000000, 599.000000) translate(80.000000, 69.000000)"></path></g></g></g></symbol><symbol id="twitter" x="0px" y="0px" viewBox="0 0 512 512" style="enable-background:new 0 0 512 512" xml:space="preserve"><g><g><path d="M512,97.248c-19.04,8.352-39.328,13.888-60.48,16.576c21.76-12.992,38.368-33.408,46.176-58.016
			c-20.288,12.096-42.688,20.64-66.56,25.408C411.872,60.704,384.416,48,354.464,48c-58.112,0-104.896,47.168-104.896,104.992
			c0,8.32,0.704,16.32,2.432,23.936c-87.264-4.256-164.48-46.08-216.352-109.792c-9.056,15.712-14.368,33.696-14.368,53.056
			c0,36.352,18.72,68.576,46.624,87.232c-16.864-0.32-33.408-5.216-47.424-12.928c0,0.32,0,0.736,0,1.152
			c0,51.008,36.384,93.376,84.096,103.136c-8.544,2.336-17.856,3.456-27.52,3.456c-6.72,0-13.504-0.384-19.872-1.792
			c13.6,41.568,52.192,72.128,98.08,73.12c-35.712,27.936-81.056,44.768-130.144,44.768c-8.608,0-16.864-0.384-25.12-1.44
			C46.496,446.88,101.6,464,161.024,464c193.152,0,298.752-160,298.752-298.688c0-4.64-0.16-9.12-0.384-13.568
			C480.224,136.96,497.728,118.496,512,97.248z"></path></g></g><g>
</g><g>
</g><g>
</g><g>
</g><g>
</g><g>
</g><g>
</g><g>
</g><g>
</g><g>
</g><g>
</g><g>
</g><g>
</g><g>
</g><g>
</g></symbol><symbol id="verification" viewBox="0 0 30 30"><g fill-rule="evenodd"><g fill="#F49A48" fill-rule="nonzero"><g><g><path d="M29.063 12.544c-.26-.416-.506-.808-.598-1.152-.099-.37-.083-.849-.067-1.356.027-.814.057-1.738-.406-2.538-.47-.812-1.29-1.248-2.015-1.633-.442-.236-.86-.458-1.122-.72-.262-.262-.484-.68-.72-1.122-.385-.724-.822-1.545-1.633-2.015-.8-.463-1.724-.433-2.538-.406-.507.016-.986.031-1.356-.067-.344-.092-.736-.338-1.152-.598C16.754.498 15.96 0 15 0c-.959 0-1.754.498-2.456.937-.416.26-.808.506-1.152.598-.37.099-.849.083-1.356.067-.814-.027-1.738-.057-2.538.406-.812.47-1.248 1.29-1.633 2.015-.236.442-.458.86-.72 1.122-.262.262-.68.484-1.122.72-.724.385-1.545.821-2.015 1.633-.463.8-.433 1.724-.407 2.538.017.507.032.986-.067 1.356-.091.344-.337.736-.597 1.152C.498 13.246 0 14.04 0 15c0 .959.498 1.754.937 2.456.26.416.506.808.598 1.152.099.37.083.849.067 1.356-.027.814-.057 1.738.406 2.538.47.812 1.29 1.248 2.015 1.633.442.236.86.458 1.122.72.262.262.484.68.72 1.122.385.724.822 1.545 1.633 2.015.8.463 1.723.433 2.538.406.507-.016.986-.031 1.356.067.344.092.736.338 1.152.598.702.439 1.497.937 2.456.937.959 0 1.754-.498 2.456-.937.416-.26.808-.506 1.152-.598.37-.099.849-.083 1.356-.067.814.027 1.738.057 2.538-.406.812-.47 1.248-1.29 1.633-2.015.236-.442.458-.86.72-1.122.262-.262.68-.484 1.122-.72.724-.385 1.545-.821 2.015-1.633.463-.8.433-1.724.407-2.538-.017-.507-.032-.986.067-1.356.091-.344.337-.736.597-1.152.439-.702.937-1.497.937-2.456 0-.959-.498-1.754-.937-2.456zm-1.502 3.973c-.318.508-.647 1.033-.807 1.633-.167.624-.146 1.258-.126 1.871.02.634.04 1.232-.17 1.594-.215.372-.749.656-1.313.956-.538.286-1.093.582-1.543 1.031-.45.45-.745 1.006-1.03 1.543-.301.565-.585 1.098-.957 1.313-.362.21-.96.19-1.594.17-.613-.02-1.247-.04-1.87.126-.601.16-1.126.489-1.634.807-.549.343-1.067.667-1.517.667-.45 0-.968-.324-1.517-.667-.508-.318-1.033-.647-1.633-.807-.419-.112-.842-.14-1.26-.14-.205 0-.41.007-.611.014-.634.02-1.232.04-1.594-.17-.372-.215-.656-.748-.956-1.313-.286-.537-.582-1.093-1.031-1.543-.45-.45-1.005-.745-1.543-1.03-.565-.301-1.098-.585-1.313-.957-.21-.362-.19-.96-.17-1.593.02-.614.04-1.248-.126-1.871-.16-.6-.489-1.126-.807-1.634-.343-.549-.667-1.067-.667-1.517 0-.45.324-.968.667-1.517.318-.508.647-1.033.807-1.633.167-.624.146-1.258.126-1.871-.02-.634-.04-1.232.17-1.594.215-.372.749-.656 1.313-.956.538-.286 1.093-.582 1.543-1.031.45-.45.745-1.005 1.03-1.543.301-.565.585-1.098.957-1.313.362-.21.96-.19 1.594-.17.613.02 1.247.04 1.87-.126.601-.16 1.126-.489 1.634-.807.549-.343 1.067-.667 1.517-.667.45 0 .968.324 1.517.667.508.318 1.033.647 1.633.807.624.167 1.258.146 1.871.126.634-.02 1.232-.04 1.594.17.372.215.656.748.956 1.313.286.537.582 1.093 1.031 1.543.45.45 1.006.745 1.543 1.03.565.301 1.098.585 1.313.957.21.362.19.96.17 1.594-.02.613-.04 1.247.126 1.87.16.601.489 1.126.807 1.634.343.549.667 1.067.667 1.517 0 .45-.324.968-.667 1.517z" transform="translate(-368.000000, -1011.000000) translate(200.000000, 957.000000) translate(168.000000, 54.000000)"></path><path d="M13.353 16.824L10.902 14.374 9.649 15.626 13.327 19.305 20.338 12.575 19.111 11.296z" transform="translate(-368.000000, -1011.000000) translate(200.000000, 957.000000) translate(168.000000, 54.000000)"></path></g></g></g></g></symbol><symbol id="verification-filled" viewBox="0 0 19 19"><g fill-rule="evenodd"><g fill-rule="nonzero"><g><g><path fill="#0C7700" d="M9.5 0c.607 0 1.111.315 1.556.594.263.164.511.32.729.378.234.063.538.053.859.042.516-.017 1.1-.035 1.607.258.514.297.79.817 1.035 1.276.149.28.29.544.455.71.167.167.431.307.711.456.459.244.979.52 1.276 1.035.293.507.274 1.091.258 1.607-.01.321-.02.624.042.859.058.218.214.466.378.73.279.444.594.948.594 1.555s-.315 1.111-.593 1.556c-.165.263-.32.511-.379.729-.063.234-.053.538-.042.859.016.516.035 1.1-.258 1.607-.297.514-.817.79-1.276 1.035-.28.149-.544.29-.71.455-.167.167-.307.431-.456.711-.244.459-.52.979-1.035 1.276-.507.293-1.091.275-1.607.258-.321-.01-.624-.02-.859.042-.218.058-.466.214-.73.378-.444.279-.948.594-1.555.594s-1.111-.315-1.556-.594c-.263-.164-.511-.32-.729-.378-.234-.063-.538-.053-.859-.042-.516.017-1.1.035-1.607-.258-.514-.297-.79-.817-1.035-1.276-.149-.28-.29-.544-.455-.71-.167-.167-.431-.307-.711-.456-.459-.244-.979-.52-1.276-1.035-.293-.507-.274-1.091-.258-1.607.01-.321.02-.624-.042-.859-.058-.218-.214-.466-.378-.73C.315 10.612 0 10.108 0 9.5s.315-1.111.593-1.556c.165-.263.32-.511.379-.729.063-.234.053-.538.042-.859-.016-.516-.035-1.1.258-1.607.297-.514.817-.79 1.276-1.035.28-.149.544-.29.71-.455.167-.167.307-.431.456-.711.244-.459.52-.979 1.035-1.276.507-.293 1.091-.274 1.607-.258.321.01.624.02.859-.042.218-.058.466-.214.73-.378C8.388.315 8.892 0 9.5 0z" transform="translate(-438.000000, -1017.000000) translate(200.000000, 957.000000) translate(238.000000, 60.000000)"></path><path fill="#FFF" d="M8.457 10.655L6.905 9.103 6.111 9.897 8.441 12.226 12.881 7.964 12.104 7.154z" transform="translate(-438.000000, -1017.000000) translate(200.000000, 957.000000) translate(238.000000, 60.000000)"></path><path fill="#0C7700" d="M9.5 2.955c3.61 0 6.545 2.936 6.545 6.545 0 3.61-2.936 6.545-6.545 6.545-3.61 0-6.545-2.936-6.545-6.545 0-3.61 2.936-6.545 6.545-6.545zm0 1.122c-2.99 0-5.423 2.433-5.423 5.423S6.51 14.923 9.5 14.923s5.423-2.433 5.423-5.423S12.49 4.077 9.5 4.077z" transform="translate(-438.000000, -1017.000000) translate(200.000000, 957.000000) translate(238.000000, 60.000000)"></path></g></g></g></g></symbol><symbol id="wallet" viewBox="0 0 22 16"><g fill-rule="evenodd"><g fill-rule="nonzero"><g><g><path d="M1.339 15.98h17.845c.739 0 1.339-.591 1.339-1.318v-2.976h-6.406c-.48 0-.948-.093-1.388-.277-.424-.176-.805-.431-1.131-.752-.326-.32-.585-.697-.763-1.114-.185-.433-.281-.895-.281-1.367v-.372c0-.472.093-.934.28-1.367.18-.417.438-.793.764-1.114.326-.32.707-.576 1.131-.752.44-.182.908-.276 1.388-.276h6.406V1.319c0-.728-.6-1.319-1.339-1.319H1.34C.6 0 0 .591 0 1.319v13.343c0 .727.6 1.318 1.339 1.318z" transform="translate(-326.000000, -668.000000) translate(200.000000, 599.000000) translate(126.000000, 69.000000)"></path><path d="M22 6.602c0-.547-.448-.989-1.004-.989h-6.879c-1.23 0-2.225.98-2.225 2.191v.372c0 1.21.996 2.191 2.225 2.191h6.879c.556 0 1.004-.442 1.004-.989V6.602zm-7.52 2.552c-.653 0-1.182-.521-1.182-1.165s.529-1.165 1.183-1.165c.653 0 1.182.521 1.182 1.165s-.529 1.165-1.182 1.165z" transform="translate(-326.000000, -668.000000) translate(200.000000, 599.000000) translate(126.000000, 69.000000)"></path></g></g></g></g></symbol><symbol id="youtube" viewBox="-21 -117 682.66672 682"><path d="m626.8125 64.035156c-7.375-27.417968-28.992188-49.03125-56.40625-56.414062-50.082031-13.703125-250.414062-13.703125-250.414062-13.703125s-200.324219 0-250.40625 13.183593c-26.886719 7.375-49.03125 29.519532-56.40625 56.933594-13.179688 50.078125-13.179688 153.933594-13.179688 153.933594s0 104.378906 13.179688 153.933594c7.382812 27.414062 28.992187 49.027344 56.410156 56.410156 50.605468 13.707031 250.410156 13.707031 250.410156 13.707031s200.324219 0 250.40625-13.183593c27.417969-7.378907 49.03125-28.992188 56.414062-56.40625 13.175782-50.082032 13.175782-153.933594 13.175782-153.933594s.527344-104.382813-13.183594-154.460938zm-370.601562 249.878906v-191.890624l166.585937 95.945312zm0 0"></path></symbol></svg>