<?xml version="1.0" encoding="UTF-8"?>
<svg id="katman_2" xmlns="http://www.w3.org/2000/svg" viewBox="0 0 194.67 80.6">
  <defs>
    <style>
      .cls-1 {
        fill-rule: evenodd;
      }
    </style>
  </defs>
  <g id="Layer_1">
    <g>
      <g>
        <g>
          <polygon points="162.25 3.18 161.76 3.18 161.76 7.99 164.49 7.99 164.49 7.52 162.25 7.52 162.25 3.18"/>
          <path d="M167.66,3.18l-1.85,4.82h.52l.5-1.31h2.14l.51,1.31h.52l-1.85-4.82h-.48ZM168.78,6.21h-1.77l.89-2.31.88,2.31Z"/>
          <path d="M173.97,5.72c-.13-.1-.28-.19-.45-.25-.16-.06-.33-.12-.49-.18-.15-.05-.3-.1-.44-.15-.14-.05-.26-.11-.36-.17-.1-.06-.18-.14-.24-.24-.06-.09-.09-.2-.09-.34,0-.12.02-.22.07-.31.05-.09.11-.18.2-.24.09-.07.19-.12.31-.16.12-.04.25-.06.38-.06.24,0,.44.04.61.13.17.09.31.22.43.38l.04.05.39-.29-.04-.05c-.16-.2-.36-.37-.59-.49-.23-.12-.52-.18-.84-.18-.2,0-.39.03-.57.09-.18.06-.33.15-.46.25-.13.11-.24.24-.31.39-.08.15-.12.32-.12.49,0,.21.04.38.12.53.08.14.19.26.32.36.13.09.27.18.43.24.16.06.32.12.48.17.15.05.3.1.45.15.14.05.26.11.37.19.1.07.19.16.25.25.06.1.09.22.09.36s-.03.26-.08.37c-.05.11-.13.21-.22.28-.09.08-.21.14-.34.18-.13.04-.27.07-.42.07-.25,0-.49-.05-.69-.16-.2-.11-.38-.26-.52-.46l-.04-.05-.41.3.04.05c.18.24.41.43.67.57.27.14.58.21.94.21.22,0,.44-.04.63-.11.19-.07.36-.17.49-.29.14-.12.25-.27.32-.43.08-.16.11-.34.11-.53,0-.21-.04-.4-.12-.55-.08-.15-.19-.27-.32-.38Z"/>
          <path d="M178.44,5.72c-.13-.1-.28-.19-.45-.25-.16-.06-.33-.12-.49-.18-.15-.05-.3-.1-.44-.15-.14-.05-.26-.11-.36-.17-.1-.06-.18-.14-.24-.24-.06-.09-.09-.2-.09-.34,0-.12.02-.22.07-.31.05-.09.11-.18.2-.24.09-.07.19-.12.31-.16.12-.04.25-.06.38-.06.24,0,.44.04.61.13.17.09.31.22.43.38l.04.05.39-.29-.04-.05c-.16-.2-.36-.37-.59-.49-.23-.12-.52-.18-.84-.18-.2,0-.39.03-.57.09-.18.06-.33.15-.46.25-.13.11-.23.24-.31.39-.08.15-.12.32-.12.49,0,.21.04.38.12.53.08.14.19.26.32.36.13.09.27.18.44.24.16.06.32.12.48.17.15.05.3.1.45.15.14.05.26.11.37.19.1.07.19.16.25.25.06.1.09.22.09.36s-.03.26-.08.37c-.05.11-.13.21-.22.28-.09.08-.21.14-.34.18-.13.04-.27.07-.42.07-.26,0-.49-.05-.69-.16-.2-.11-.38-.26-.52-.46l-.04-.05-.41.3.04.05c.18.24.41.43.67.57.27.14.58.21.94.21.22,0,.44-.04.63-.11.19-.07.36-.17.49-.29.14-.12.25-.27.32-.43.08-.16.12-.34.12-.53,0-.21-.04-.4-.12-.55-.08-.15-.19-.27-.32-.38Z"/>
          <rect x="180.51" y="3.18" width=".49" height="4.82"/>
          <path d="M190.62,6.1c-.08-.15-.19-.27-.32-.38-.13-.1-.28-.19-.45-.25-.16-.06-.33-.12-.49-.18-.15-.05-.3-.1-.44-.15-.14-.05-.26-.11-.36-.17-.1-.06-.18-.14-.24-.24-.06-.09-.09-.2-.09-.34,0-.12.02-.22.07-.31.05-.09.11-.18.2-.24.09-.07.19-.12.31-.16.12-.04.25-.06.38-.06.24,0,.44.04.61.13.17.09.31.22.43.38l.04.05.39-.29-.04-.05c-.16-.2-.36-.37-.59-.49-.23-.12-.52-.18-.84-.18-.2,0-.39.03-.57.09-.18.06-.33.15-.46.25-.13.11-.23.24-.31.39-.08.15-.12.32-.12.49,0,.21.04.38.12.53.08.14.19.26.32.36.13.09.27.18.44.24.16.06.32.12.48.17.15.05.3.1.45.15.14.05.26.11.37.19.1.07.19.16.25.25.06.1.09.22.09.36s-.03.26-.08.37c-.05.11-.13.21-.22.28-.09.08-.21.14-.34.18-.13.04-.27.07-.43.07-.26,0-.49-.05-.69-.16-.2-.11-.38-.26-.52-.46l-.04-.05-.41.3.04.05c.18.24.41.43.67.57.27.14.58.21.94.21.22,0,.44-.04.63-.11.19-.07.36-.17.49-.29.14-.12.25-.27.32-.43.08-.16.11-.34.11-.53,0-.21-.04-.4-.12-.55Z"/>
          <path d="M160.14,7.01c-.09.09-.19.17-.3.23-.3.19-.66.28-1.06.28-.28,0-.54-.05-.78-.15-.24-.1-.45-.24-.62-.42-.18-.18-.32-.38-.42-.62-.1-.23-.15-.49-.15-.75s.05-.52.15-.75c.1-.24.24-.44.42-.62.18-.17.39-.32.62-.42.24-.1.5-.15.78-.15.37,0,.7.09,1,.27.13.08.25.18.36.28v-.6s-.08-.06-.12-.08c-.18-.1-.38-.19-.59-.24-.21-.06-.43-.09-.65-.09-.34,0-.66.06-.96.19-.3.13-.56.3-.78.52-.22.22-.4.48-.53.77-.13.29-.19.61-.19.94s.07.65.19.94c.13.29.31.55.53.77.22.22.49.39.78.52.3.13.62.19.96.19.24,0,.47-.03.69-.09.22-.06.42-.15.61-.26.02-.01.04-.03.06-.04v-.6Z"/>
          <path d="M186.23,7.01c-.09.09-.19.17-.3.23-.3.19-.66.28-1.06.28-.28,0-.54-.05-.78-.15-.24-.1-.45-.24-.62-.42-.18-.18-.32-.38-.42-.62-.1-.23-.15-.49-.15-.75s.05-.52.15-.75c.1-.24.24-.44.42-.62.18-.17.39-.32.62-.42.24-.1.5-.15.78-.15.37,0,.7.09,1,.27.13.08.25.18.36.28v-.6s-.08-.06-.12-.08c-.18-.1-.38-.19-.59-.24-.21-.06-.43-.09-.65-.09-.34,0-.66.06-.96.19-.3.13-.56.3-.78.52-.22.22-.4.48-.53.77-.13.29-.2.61-.2.94s.07.65.2.94c.13.29.31.55.53.77.22.22.49.39.78.52.3.13.62.19.96.19.24,0,.47-.03.69-.09.22-.06.42-.15.61-.26.02-.01.04-.03.06-.04v-.6Z"/>
        </g>
        <g>
          <path class="cls-1" d="M140.27,2.49h-3.11s0,1.55,0,1.55h.21c.33-1.36.49-1.36,1.16-1.36h.49l-2.07,5.79h3.27s0-1.88,0-1.88h-.22c-.4,1.68-.55,1.68-1.27,1.68h-.53l2.07-5.78Z"/>
          <polygon class="cls-1" points="136 8.47 136 8.27 135.54 8.27 135.54 2.69 136 2.69 136 2.49 133.96 2.49 133.96 2.69 134.42 2.69 134.42 8.27 133.96 8.27 133.96 8.47 136 8.47"/>
          <path class="cls-1" d="M130.82,2.49h-1.76v.21h.46v5.58h-.46v.19h1.86c1.33,0,2.24-1.04,2.24-2.98,0-2.33-1.02-3-2.34-3ZM130.62,8.28V2.7c.11,0,.22,0,.33,0,.9,0,.97.99.97,2.62,0,2.56-.22,2.97-1.3,2.97Z"/>
          <path class="cls-1" d="M128.21,8.47v-2.02h-.22c-.34,1.82-.49,1.82-1.15,1.82h-.38V2.69h.56v-.2h-2.13s0,.2,0,.2h.45v5.58h-.45v.2h3.33Z"/>
          <polygon class="cls-1" points="123.95 8.47 123.95 8.27 123.49 8.27 123.49 2.69 123.95 2.69 123.95 2.49 121.91 2.49 121.91 2.69 122.37 2.69 122.37 8.27 121.91 8.27 121.91 8.47 123.95 8.47"/>
          <polygon class="cls-1" points="121.3 2.69 121.3 2.49 120.1 2.49 120.1 2.69 120.54 2.69 119.61 5.44 118.83 2.69 119.25 2.69 119.25 2.49 117.21 2.49 117.21 2.69 117.65 2.69 118.65 5.81 118.65 8.26 118.32 8.26 118.32 8.47 120.23 8.47 120.23 8.26 119.9 8.26 119.9 5.51 120.87 2.69 121.3 2.69"/>
          <polygon class="cls-1" points="116.7 2.69 116.7 2.49 115.56 2.49 115.56 2.69 115.98 2.69 115.98 6.79 114.51 2.49 112.75 2.49 112.75 2.69 113.11 2.69 113.11 8.26 112.75 8.26 112.75 8.47 113.81 8.47 113.81 8.26 113.42 8.26 113.42 2.76 115.46 8.47 116.32 8.47 116.32 2.69 116.7 2.69"/>
          <polygon class="cls-1" points="111.86 8.47 111.86 8.27 111.41 8.27 111.41 2.69 111.86 2.69 111.86 2.49 109.82 2.49 109.82 2.69 110.29 2.69 110.29 8.27 109.82 8.27 109.82 8.47 111.86 8.47"/>
          <path class="cls-1" d="M104.8,8.47v-2.02h-.22c-.34,1.82-.49,1.82-1.15,1.82h-.38V2.69h.45v-.2h-2.03v.2h.45v5.58h-.45v.2h3.33Z"/>
          <path class="cls-1" d="M105.18,2.49v1.57h.25c.14-1.27.44-1.37.74-1.37h.31v5.58h-.33v.2h1.77v-.2h-.33V2.69h.31c.3,0,.6.1.74,1.37h.25v-1.57h-3.7Z"/>
          <rect x="97.74" y="2.49" width=".45" height=".2"/>
          <rect x="97.52" y="6.14" width="1.58" height=".2"/>
          <polygon class="cls-1" points="100.44 8.27 99.1 2.49 98.2 2.49 96.87 8.27 96.46 8.27 96.46 8.47 97.78 8.47 97.78 8.27 97.19 8.27 98.26 3.59 99.27 8.27 98.78 8.27 98.78 8.47 100.83 8.47 100.83 8.27 100.44 8.27"/>
        </g>
        <polygon points="153.99 4.64 153.97 4.56 150.06 4.56 150.02 4.61 150.62 6.36 147.18 6.36 149.36 2.43 149.36 2.4 148.52 0 148.44 0 146.87 4.56 142.98 4.56 142.96 4.64 146.23 6.43 144.88 10.34 144.96 10.37 147.06 6.58 149.81 7.55 152 10.38 152.07 10.34 150.73 6.43 153.99 4.64"/>
      </g>
      <g>
        <path d="M151.94,48.98c2.37-2.97,3.55-6.52,3.55-10.66,0-5.29-1.89-9.55-5.67-12.77-3.43-2.9-8.99-4.35-16.7-4.35h-10.32v58.34h8.8v-23.88h1.59l16.66,23.88h10.77l-18.06-24.86c3.88-.83,7-2.73,9.37-5.71ZM131.61,48v-18.51h3.14c8.11,0,12.17,2.99,12.17,8.96,0,6.37-4.17,9.56-12.51,9.56h-2.8Z"/>
        <path d="M23.73,44.86l-5.82-2.38c-4.23-1.74-6.35-4.03-6.35-6.88,0-2.07.81-3.78,2.42-5.14,1.61-1.39,3.64-2.08,6.08-2.08,1.99,0,3.61.4,4.87,1.21,1.21.71,2.48,2.22,3.82,4.53l7.14-4.23c-3.78-6.55-9.03-9.82-15.76-9.82-4.99,0-9.16,1.49-12.51,4.46-3.35,2.95-5.03,6.61-5.03,11,0,6.5,3.99,11.44,11.98,14.81l5.63,2.34c1.46.63,2.72,1.29,3.78,1.98,1.06.69,1.92,1.44,2.59,2.23.67.79,1.16,1.66,1.47,2.61.31.94.47,1.98.47,3.12,0,2.82-.91,5.15-2.72,6.99-1.81,1.84-4.09,2.76-6.84,2.76-3.48,0-6.12-1.26-7.93-3.78-1.01-1.31-1.71-3.68-2.12-7.1l-8.92,1.96c.81,5.44,2.83,9.66,6.08,12.66,3.3,3,7.48,4.5,12.54,4.5,5.34,0,9.81-1.76,13.41-5.29,3.58-3.5,5.37-7.93,5.37-13.3,0-4.01-1.1-7.39-3.29-10.15-2.19-2.76-5.66-5.09-10.39-7.01Z"/>
        <polygon points="73.07 21.21 37.48 21.21 37.48 29.48 50.89 29.48 50.89 79.55 59.7 79.55 59.7 29.48 73.07 29.48 73.07 21.21"/>
        <path d="M191.39,51.87c-2.19-2.76-5.66-5.09-10.39-7.01l-5.82-2.38c-4.23-1.74-6.35-4.03-6.35-6.88,0-2.07.81-3.78,2.42-5.14,1.61-1.39,3.64-2.08,6.08-2.08,1.99,0,3.61.4,4.87,1.21,1.21.71,2.48,2.22,3.82,4.53l7.14-4.23c-3.78-6.55-9.03-9.82-15.76-9.82-4.99,0-9.16,1.49-12.51,4.46-3.35,2.95-5.03,6.61-5.03,11,0,6.5,3.99,11.44,11.98,14.81l5.63,2.34c1.46.63,2.72,1.29,3.78,1.98,1.06.69,1.92,1.44,2.59,2.23.67.79,1.16,1.66,1.47,2.61.31.94.47,1.98.47,3.12,0,2.82-.91,5.15-2.72,6.99-1.81,1.84-4.09,2.76-6.84,2.76-3.48,0-6.12-1.26-7.93-3.78-1.01-1.31-1.71-3.68-2.12-7.1l-8.92,1.96c.81,5.44,2.83,9.66,6.08,12.66,3.3,3,7.48,4.5,12.54,4.5,5.34,0,9.81-1.76,13.41-5.29,3.58-3.5,5.37-7.93,5.37-13.3,0-4.01-1.1-7.39-3.29-10.15Z"/>
        <polygon points="112.31 59.66 90.38 59.66 104.27 34.59 104.28 34.37 98.92 19.09 98.43 19.09 88.44 48.16 63.62 48.16 63.5 48.64 84.33 60.09 77.62 79.6 79.35 79.6 89.63 61.03 107.13 67.25 116.74 79.6 119.73 79.6 113.02 60.09 112.31 59.66"/>
      </g>
    </g>
  </g>
</svg>