<?xml version="1.0" encoding="utf-8"?>
<!-- Generator: Adobe Illustrator 24.0.1, SVG Export Plug-In . SVG Version: 6.00 Build 0)  -->
<svg version="1.1" id="Layer_1" xmlns="http://www.w3.org/2000/svg" xmlns:xlink="http://www.w3.org/1999/xlink" x="0px" y="0px"
	 viewBox="0 0 655.91 170.66" style="enable-background:new 0 0 655.91 170.66;" xml:space="preserve">
<style type="text/css">
	.st0{fill:#FFFFFF;}
</style>
<g>
	<g>
		<path d="M655.91,147.59c0,12.74-12.98,23.06-28.99,23.06H28.99C12.98,170.66,0,160.33,0,147.59V23.06C0,10.33,12.98,0,28.99,0
			h597.93c16.01,0,28.99,10.33,28.99,23.06V147.59z"/>
		<g>
			<path class="st0" d="M129.32,109.15c-2.39,5.31-3.54,7.68-6.62,12.37c-4.3,6.55-10.36,14.7-17.87,14.77
				c-6.68,0.06-8.39-4.34-17.45-4.29c-9.06,0.05-10.95,4.37-17.63,4.31c-7.51-0.07-13.26-7.43-17.56-13.98
				c-12.03-18.31-13.28-39.8-5.87-51.22c5.27-8.12,13.59-12.87,21.41-12.87c7.96,0,12.97,4.37,19.55,4.37
				c6.38,0,10.28-4.37,19.48-4.37c6.96,0,14.33,3.79,19.58,10.34C109.14,77.99,111.93,102.58,129.32,109.15z"/>
			<g>
				<path class="st0" d="M99.78,50.91c3.34-4.29,5.88-10.36,4.96-16.55c-5.46,0.38-11.85,3.85-15.59,8.38
					c-3.39,4.11-6.18,10.22-5.09,16.14C90.03,59.07,96.2,55.51,99.78,50.91z"/>
			</g>
		</g>
		<g>
			<path class="st0" d="M177.79,35.28l-19.35,56.96h8.86l5.78-17.49h18.74l5.94,17.49h9.11l-19.44-56.96H177.79z M182.38,44.64
				c0.65,2.54,1.36,5.18,2.26,8.04l5.22,15.1h-14.84l5.14-15.2C180.95,50.12,181.69,47.45,182.38,44.64z"/>
			<path class="st0" d="M231.91,50.04c-5.87,0-10.57,2.27-13.7,6.57l-0.34-5.67h-7.88l0.05,0.72c0.23,3.53,0.33,7.41,0.33,12.99
				v43.91h8.62V88.09c2.67,3.2,6.94,5.06,11.78,5.06c5.04,0,9.68-1.97,13.06-5.55c3.78-3.99,5.77-9.73,5.77-16.58
				c0-6.06-1.73-11.29-5.01-15.14C241.36,52.12,236.87,50.04,231.91,50.04z M229.76,57.18c7.68,0,11.12,7.12,11.12,14.17
				c0,9.1-4.39,14.75-11.45,14.75c-4.82,0-8.99-3.28-10.15-8c-0.2-0.73-0.31-1.7-0.31-2.79v-6.93c0-0.63,0.14-1.39,0.27-2.13
				c0.04-0.24,0.09-0.47,0.12-0.7C220.66,60.62,224.92,57.18,229.76,57.18z"/>
			<path class="st0" d="M276.29,50.04c-5.87,0-10.57,2.27-13.7,6.57l-0.34-5.67h-7.88l0.04,0.72c0.23,3.53,0.33,7.41,0.33,12.99
				v43.91h8.62V88.09c2.67,3.2,6.94,5.06,11.78,5.06c5.04,0,9.68-1.97,13.07-5.55c3.77-3.99,5.76-9.73,5.76-16.58
				c0-6.06-1.73-11.29-5.01-15.14C285.74,52.12,281.25,50.04,276.29,50.04z M274.14,57.18c7.68,0,11.12,7.12,11.12,14.17
				c0,9.1-4.39,14.75-11.45,14.75c-4.82,0-8.99-3.28-10.15-8c-0.2-0.73-0.3-1.7-0.3-2.79v-6.93c0-0.63,0.14-1.4,0.27-2.13
				c0.04-0.23,0.09-0.46,0.12-0.69C265.04,60.62,269.3,57.18,274.14,57.18z"/>
			<path class="st0" d="M331.89,59.41c-8.04-3.11-10.62-5.56-10.62-10.09c0-3.81,3.03-7.65,9.8-7.65c5.58,0,9.15,1.94,10.12,2.54
				l0.73,0.45l2.43-7.19l-0.48-0.28c-1.44-0.85-5.56-2.82-12.55-2.82c-10.99,0-18.67,6.49-18.67,15.78
				c0,7.49,4.81,12.73,15.13,16.48c7.31,2.73,10.04,5.53,10.04,10.33c0,5.43-4.2,8.81-10.95,8.81c-4.4,0-8.93-1.28-12.42-3.52
				l-0.75-0.48l-2.31,7.36l0.43,0.28c3.25,2.17,9.38,3.74,14.57,3.74c14.81,0,20.06-9.03,20.06-16.77
				C346.42,68.41,342.21,63.49,331.89,59.41z"/>
			<path class="st0" d="M361.94,41.14l-8.45,2.65v7.16h-6.19v6.89h6.19v21.1c0,5.1,0.98,8.68,2.98,10.93
				c1.93,2.11,4.89,3.27,8.34,3.27c3.26,0,5.57-0.64,6.66-1.03l0.48-0.17l-0.41-6.9l-0.83,0.25c-1.09,0.33-2.21,0.46-4.01,0.46
				c-3.34,0-4.77-2.11-4.77-7.07V57.84h10.4v-6.89h-10.4V41.14z"/>
			<path class="st0" d="M393.69,50.04c-12.06,0-20.48,9-20.48,21.88c0,12.5,8.15,21.22,19.82,21.22h0.08
				c9.87,0,20.48-6.87,20.48-21.96c0-6.14-1.9-11.41-5.49-15.24C404.48,52.09,399.5,50.04,393.69,50.04z M393.44,56.85
				c7.75,0,11.28,7.56,11.28,14.58c0,8.64-4.82,14.91-11.45,14.91h-0.08c-6.54,0-11.28-6.17-11.28-14.66
				C381.91,64.3,385.48,56.85,393.44,56.85z"/>
			<path class="st0" d="M439.99,50.45l-0.52-0.13c-0.76-0.19-1.38-0.27-2.14-0.27c-4.51,0-8.55,2.65-10.81,6.94l-0.25-6.03h-7.73
				l0.05,0.72c0.23,3.41,0.33,7.24,0.33,12.41l-0.08,28.15h8.62V70.28c0-1.2,0.08-2.33,0.24-3.34c0.97-5.28,4.53-8.68,9.07-8.68
				c0.88,0,1.58,0.07,2.31,0.14l0.92,0.1V50.45z"/>
			<path class="st0" d="M459.36,49.96c-11.47,0-19.49,9.17-19.49,22.29c0,12.64,7.97,20.81,20.31,20.81c6.49,0,11-1.42,13.64-2.62
				l0.52-0.23l-1.66-6.42l-0.72,0.29c-2.35,0.96-5.47,1.93-10.8,1.93c-3.74,0-12.38-1.24-12.91-12.5l27.82,0.08l0.11-0.55
				c0.17-0.88,0.26-2.06,0.26-3.6C476.46,60.46,471.98,49.96,459.36,49.96z M458.79,56.52c2.62,0,4.75,0.81,6.33,2.41
				c2.48,2.52,2.91,6.24,2.97,8.02h-19.66C449.23,61.98,452.34,56.52,458.79,56.52z"/>
		</g>
		<g>
			<path class="st0" d="M167.29,111.76c0,1.85-1.26,3.18-3.07,3.18c-1.81,0-3.07-1.33-3.07-3.18c0-1.85,1.26-3.18,3.07-3.18
				C166.03,108.58,167.29,109.91,167.29,111.76z M161.29,143.38v-25.91h5.85v25.91H161.29z"/>
			<path class="st0" d="M192.65,130.87v12.51h-5.7v-10.85c0-2.52-1.48-4.07-3.92-4.07c-2.85,0.04-4.55,2.18-4.55,5.11v9.81h-5.7
				v-19.92h5.7v3.48c1.41-2.48,3.78-3.66,6.88-3.7C189.8,123.24,192.65,126.2,192.65,130.87z"/>
			<path class="st0" d="M217.23,143.38h-5.66v-2.92c-1.41,2.04-3.55,3.15-6.29,3.15c-5.66,0-9.4-4.11-9.4-10.25
				c0-6.07,3.7-10.11,9.25-10.11c2.81,0,5,1.11,6.44,3.15v-10.48h5.66V143.38z M211.57,133.49c0-3.26-2.04-5.52-4.96-5.52
				c-2.96,0-5,2.29-5.03,5.52c0.04,3.26,2.04,5.52,5.03,5.52C209.53,139.01,211.57,136.75,211.57,133.49z"/>
			<path class="st0" d="M228.86,117.8c0,1.85-1.26,3.18-3.07,3.18c-1.81,0-3.07-1.33-3.07-3.18c0-1.85,1.26-3.18,3.07-3.18
				C227.6,114.61,228.86,115.95,228.86,117.8z M222.94,143.38v-19.92h5.7v19.92H222.94z"/>
			<path class="st0" d="M239.82,127.05c1.37-2.44,3.63-3.78,6.59-3.81v5.37c-4.07-0.37-6.59,1.81-6.59,5.18v9.59h-5.7v-19.92h5.7
				V127.05z"/>
			<path class="st0" d="M255.44,117.8c0,1.85-1.26,3.18-3.07,3.18c-1.81,0-3.07-1.33-3.07-3.18c0-1.85,1.26-3.18,3.07-3.18
				C254.18,114.61,255.44,115.95,255.44,117.8z M249.52,143.38v-19.92h5.7v19.92H249.52z"/>
			<path class="st0" d="M280.58,130.87v12.51h-5.7v-10.85c0-2.52-1.48-4.07-3.92-4.07c-2.85,0.04-4.55,2.18-4.55,5.11v9.81h-5.7
				v-19.92h5.7v3.48c1.41-2.48,3.78-3.66,6.88-3.7C277.73,123.24,280.58,126.2,280.58,130.87z"/>
		</g>
	</g>
	<g>
		<path class="st0" d="M489.73,49.21l3.75-11.8h4.37V57.4h-8.12V49.21z"/>
		<path class="st0" d="M505.21,71.59c0-6.35,1.36-11.46,4.08-15.34c2.72-3.88,6.54-5.83,11.47-5.83c2.16,0,4.09,0.44,5.79,1.3
			c1.7,0.87,3.18,2.11,4.43,3.73V33.59h8.93v57.33h-7.24l-1.07-5.04c-1.27,1.89-2.82,3.33-4.63,4.32s-3.91,1.49-6.28,1.49
			c-4.88,0-8.67-1.78-11.39-5.33c-2.72-3.55-4.08-8.22-4.08-14V71.59z M514.14,72.36c0,3.68,0.7,6.6,2.11,8.78
			c1.41,2.18,3.64,3.27,6.71,3.27c1.89,0,3.49-0.4,4.8-1.21c1.31-0.81,2.38-1.96,3.21-3.45V62.4c-0.83-1.47-1.91-2.62-3.23-3.44
			s-2.89-1.23-4.7-1.23c-3.04,0-5.28,1.28-6.73,3.84c-1.45,2.56-2.17,5.9-2.17,10.01V72.36z"/>
		<path class="st0" d="M573.45,90.92c-0.32-1-0.58-1.98-0.79-2.94c-0.21-0.96-0.35-1.91-0.42-2.87c-1.2,1.86-2.81,3.42-4.81,4.69
			c-2.01,1.26-4.25,1.89-6.73,1.89c-4.14,0-7.32-1.07-9.54-3.2c-2.22-2.13-3.33-5.06-3.33-8.78c0-3.85,1.52-6.84,4.56-8.99
			c3.04-2.14,7.31-3.22,12.83-3.22h6.95v-3.49c0-2.08-0.61-3.71-1.82-4.89c-1.21-1.18-2.97-1.76-5.27-1.76
			c-2.03,0-3.65,0.48-4.85,1.45c-1.2,0.97-1.8,2.22-1.8,3.77l-8.6,0.04l-0.04-0.22c-0.17-3.14,1.23-5.92,4.21-8.34
			c2.98-2.43,6.85-3.64,11.63-3.64c4.63,0,8.37,1.18,11.21,3.53s4.26,5.73,4.26,10.14v17.68c0,1.64,0.11,3.22,0.33,4.72
			c0.22,1.51,0.58,2.98,1.07,4.43H573.45z M562.54,84.52c2.23,0,4.25-0.56,6.05-1.69c1.8-1.13,3-2.41,3.58-3.86v-5.88h-7.09
			c-2.6,0-4.63,0.64-6.1,1.93c-1.47,1.29-2.21,2.8-2.21,4.54c0,1.52,0.5,2.73,1.49,3.62C559.25,84.08,560.68,84.52,562.54,84.52z"/>
		<path class="st0" d="M598.52,51.15l0.51,5.73c1.3-2.03,2.93-3.62,4.91-4.76s4.2-1.71,6.67-1.71c4.14,0,7.37,1.27,9.68,3.82
			c2.32,2.55,3.47,6.53,3.47,11.94v24.73h-8.93V66.26c0-3.09-0.6-5.28-1.8-6.58c-1.2-1.3-3.01-1.95-5.44-1.95
			c-1.91,0-3.57,0.36-4.96,1.08s-2.51,1.72-3.34,3v29.11h-8.93V51.15H598.52z"/>
	</g>
</g>
</svg>
