<?xml version="1.0" encoding="utf-8"?>
<!-- Generator: Adobe Illustrator 25.0.1, SVG Export Plug-In . SVG Version: 6.00 Build 0)  -->
<svg version="1.1" id="Layer_1" xmlns="http://www.w3.org/2000/svg" xmlns:xlink="http://www.w3.org/1999/xlink" x="0px" y="0px"
	 viewBox="0 0 1100 291" style="enable-background:new 0 0 1100 291;" xml:space="preserve">
<style type="text/css">
	.st0{fill:#B6B7B7;}
	.st1{fill:#010101;}
	.st2{fill-rule:evenodd;clip-rule:evenodd;fill:#C8202F;}
	.st3{fill:#FFFFFF;}
</style>
<g>
	<g>
		<path class="st0" d="M1011.99,4.79H88.48c-2.92,0-5.8,0-8.71,0.01c-2.44,0.01-4.85,0.05-7.32,0.09c-5.3,0.11-10.66,0.4-15.95,1.21
			c-5.33,0.81-10.28,2.18-15.13,4.31c-4.77,2.11-9.12,4.84-12.89,8.1c-3.81,3.25-6.97,7.02-9.38,11.14
			c-2.48,4.18-4.05,8.47-4.98,13.08c-0.96,4.55-1.29,9.15-1.43,13.75c-0.07,2.11-0.08,4.22-0.12,6.33c0,2.49,0,4.99,0,7.5v147.37
			c0,2.54,0,5.02,0,7.51c0.04,2.13,0.05,4.2,0.12,6.33c0.14,4.6,0.47,9.2,1.43,13.75c0.93,4.6,2.5,8.92,4.98,13.08
			c2.41,4.09,5.57,7.86,9.38,11.09c3.77,3.28,8.12,6.01,12.89,8.1c4.85,2.15,9.8,3.5,15.13,4.33c5.29,0.82,10.65,1.09,15.95,1.21
			c2.46,0.05,4.88,0.07,7.32,0.07c2.91,0.01,5.8,0.01,8.71,0.01h923.51c2.86,0,5.77,0,8.63-0.01c2.43,0,4.91-0.03,7.34-0.07
			c5.33-0.13,10.68-0.4,15.92-1.21c5.33-0.83,10.29-2.19,15.19-4.33c4.76-2.09,9.11-4.82,12.87-8.1c3.79-3.23,6.95-7,9.41-11.09
			c2.44-4.17,4.03-8.48,4.93-13.08c0.98-4.55,1.29-9.15,1.48-13.75c0.03-2.13,0.03-4.2,0.03-6.33c0.06-2.5,0.06-4.98,0.06-7.51
			V70.31c0-2.52,0-5.01-0.06-7.5c0-2.11,0-4.22-0.03-6.33c-0.19-4.6-0.5-9.21-1.48-13.75c-0.9-4.6-2.49-8.9-4.93-13.08
			c-2.46-4.11-5.61-7.88-9.41-11.14c-3.76-3.25-8.12-5.99-12.87-8.1c-4.9-2.13-9.86-3.5-15.19-4.31c-5.24-0.82-10.59-1.1-15.92-1.21
			c-2.43-0.03-4.91-0.07-7.34-0.09C1017.76,4.79,1014.85,4.79,1011.99,4.79L1011.99,4.79z"/>
		<path class="st1" d="M79.81,277.18c-2.43,0-4.79-0.03-7.2-0.07c-4.45-0.11-9.73-0.32-14.88-1.12c-4.86-0.76-9.18-1.99-13.19-3.76
			c-4.15-1.82-7.88-4.17-11.12-6.98c-3.3-2.79-6.01-6-8.12-9.59c-2.06-3.47-3.48-7.19-4.32-11.39c-0.97-4.62-1.22-9.31-1.33-12.88
			c-0.05-1.45-0.12-6.27-0.12-6.27V62.81c0,0,0.07-4.75,0.12-6.15c0.1-3.6,0.35-8.29,1.32-12.86c0.85-4.22,2.26-7.94,4.33-11.42
			c2.11-3.6,4.83-6.83,8.08-9.6c3.29-2.84,7.04-5.2,11.16-7.02c4.09-1.79,8.4-3.02,13.16-3.74c5.36-0.83,10.79-1.04,14.93-1.13
			l7.18-0.08h940.77l7.27,0.09c4.08,0.09,9.52,0.3,14.79,1.12c4.8,0.72,9.13,1.96,13.3,3.76c4.08,1.8,7.82,4.16,11.08,6.98
			c3.26,2.79,5.99,6.03,8.15,9.65c2.05,3.51,3.45,7.23,4.26,11.33c0.92,4.33,1.21,8.79,1.38,12.97c0.02,1.95,0.02,4.04,0.02,6.12
			c0.06,2.58,0.06,5.03,0.06,7.5v147.37c0,2.5,0,4.93-0.06,7.39c0,2.23,0,4.28-0.03,6.39c-0.16,4.05-0.45,8.49-1.36,12.73
			c-0.82,4.21-2.22,7.94-4.3,11.47c-2.15,3.57-4.87,6.8-8.08,9.52c-3.29,2.87-7.02,5.21-11.14,7.02c-4.13,1.81-8.34,3.01-13.28,3.78
			c-5.1,0.8-10.38,1.01-14.88,1.12c-2.33,0.05-4.77,0.07-7.14,0.07l-8.63,0.01L79.81,277.18z"/>
	</g>
	<g>
		<g id="形状_1_拷贝_25_4_">
			<g>
				<path class="st2" d="M200.1,55.83h-77.11c-36.32,0-49.61,13.29-49.61,49.61v77.11c0,36.32,13.29,49.61,49.61,49.61h77.08
					c36.32,0,49.63-13.29,49.63-49.61l0-77.11C249.7,69.12,236.42,55.83,200.1,55.83z"/>
			</g>
		</g>
		<g>
			<path class="st3" d="M108.3,144.01h4.68v23.05h-4.68v-9.36H97.74v9.36h-4.68v-23.05h4.68v9.3h10.56V144.01z M134.65,157.2
				c0,3.75-1.86,5.75-5.24,5.75c-3.4,0-5.27-2.06-5.27-5.91v-13.02h-4.68v13.18c0,6.48,3.6,10.2,9.88,10.2
				c6.34,0,9.98-3.79,9.98-10.39v-13h-4.68V157.2z M188.7,159.86l-5.23-15.85h-3.82l-5.23,15.85l-5.09-15.84h-4.98l8.03,23.04h3.87
				l5.24-15.14l5.24,15.14h3.91l8.01-23.04h-4.85L188.7,159.86z M207.04,157.14h8.51v-4.2h-8.51v-4.72h12.35v-4.2h-16.96v23.02
				h17.41v-4.2h-12.79V157.14z M225.41,167.03h4.61v-23.02h-4.61V167.03z M148.57,162.25l-2.1,4.8h-4.77l10.15-23.04h4.13
				l10.11,23.04h-4.9l-2.07-4.8H148.57z M150.31,158.09h7.07l-3.55-8.25L150.31,158.09z"/>
			<path class="st3" d="M161.54,114.66c-16.18,0-29.35-13.17-29.35-29.35h4.15c0,13.9,11.31,25.2,25.2,25.2
				c13.9,0,25.2-11.31,25.2-25.2h4.15C190.89,101.49,177.73,114.66,161.54,114.66z"/>
		</g>
	</g>
	<g>
		<g>
			<path class="st3" d="M356.97,118.28H322.3l-8.99,23.66h-11.13l32.53-81.36h9.61l33.32,81.36h-11.41L356.97,118.28z
				 M325.56,109.63h27.98l-10.06-26.07c-0.94-2.21-2.06-5.26-3.37-9.16l-0.67-1.85c-1.05,3.37-2.3,6.99-3.76,10.84L325.56,109.63z"
				/>
			<path class="st3" d="M383.93,96.14c0-5.32-0.15-10.15-0.45-14.5h9.61c0.49,2.81,0.81,5.26,0.96,7.36
				c2.55-2.55,5.39-4.61,8.54-6.18s6.57-2.36,10.28-2.36c4.08,0,7.84,1.03,11.27,3.09c3.43,2.06,6.21,5.31,8.34,9.75
				c2.14,4.44,3.2,10.09,3.2,16.94c0,6.89-1.13,12.8-3.4,17.73c-2.27,4.93-5.49,8.68-9.66,11.27c-4.18,2.58-9.09,3.88-14.75,3.88
				c-2.44,0-4.83-0.23-7.19-0.7c-2.36-0.47-4.48-1.08-6.35-1.83v25.51l-10.4,1.18V96.14z M420.25,128.79
				c3.13-4.16,4.69-10.21,4.69-18.15c0-7.6-1.35-13.12-4.05-16.55c-2.7-3.43-6.26-5.14-10.68-5.14c-5.69,0-10.99,2.6-15.9,7.81
				v35.68c1.69,0.82,3.58,1.46,5.67,1.91c2.1,0.45,4.21,0.67,6.35,0.67C412.49,135.02,417.12,132.94,420.25,128.79z"/>
			<path class="st3" d="M444.88,96.14c0-5.32-0.15-10.15-0.45-14.5h9.61c0.49,2.81,0.81,5.26,0.96,7.36
				c2.55-2.55,5.39-4.61,8.54-6.18s6.57-2.36,10.28-2.36c4.08,0,7.84,1.03,11.27,3.09c3.43,2.06,6.21,5.31,8.34,9.75
				c2.14,4.44,3.2,10.09,3.2,16.94c0,6.89-1.13,12.8-3.4,17.73c-2.27,4.93-5.49,8.68-9.66,11.27c-4.18,2.58-9.09,3.88-14.75,3.88
				c-2.44,0-4.83-0.23-7.19-0.7c-2.36-0.47-4.48-1.08-6.35-1.83v25.51l-10.4,1.18V96.14z M481.21,128.79
				c3.13-4.16,4.69-10.21,4.69-18.15c0-7.6-1.35-13.12-4.05-16.55c-2.7-3.43-6.26-5.14-10.68-5.14c-5.69,0-10.99,2.6-15.9,7.81
				v35.68c1.69,0.82,3.58,1.46,5.67,1.91c2.1,0.45,4.21,0.67,6.35,0.67C473.45,135.02,478.08,132.94,481.21,128.79z"/>
			<path class="st3" d="M522.13,137.97c-5.88-3.39-10.36-8.18-13.43-14.36c-3.07-6.18-4.61-13.39-4.61-21.63
				c0-9.03,1.79-16.73,5.37-23.12c3.58-6.39,8.48-11.22,14.72-14.5c6.24-3.28,13.29-4.92,21.15-4.92c4.64,0,9.08,0.54,13.32,1.63
				c4.23,1.09,8.15,2.53,11.74,4.33l-3.32,8.43c-7.42-3.67-14.55-5.51-21.41-5.51c-5.99,0-11.29,1.29-15.87,3.88
				c-4.59,2.58-8.17,6.41-10.76,11.46c-2.58,5.06-3.88,11.14-3.88,18.26c0,6.18,1,11.7,3.01,16.55c2,4.85,5.14,8.7,9.41,11.55
				c4.27,2.85,9.66,4.27,16.18,4.27c3.03,0,6.13-0.29,9.27-0.87c3.15-0.58,6.14-1.4,8.99-2.44v-18.65h-20.34v-8.77h30.62v32.76
				c-4.46,2.17-9.21,3.84-14.24,5c-5.04,1.16-10.01,1.74-14.92,1.74C535.01,143.06,528.01,141.36,522.13,137.97z"/>
			<path class="st3" d="M623.03,141.93c-0.41-1.87-0.71-4.66-0.9-8.37c-2.25,2.66-5.18,4.91-8.79,6.74c-3.62,1.83-7.61,2.75-12,2.75
				c-3.48,0-6.61-0.67-9.38-2.02c-2.77-1.35-4.96-3.35-6.57-6.01c-1.61-2.66-2.42-5.9-2.42-9.72c0-5.81,2.1-10.46,6.29-13.96
				c4.19-3.5,11.16-5.25,20.9-5.25c3.71,0,7.58,0.26,11.63,0.79v-1.52c0-6.22-1.26-10.58-3.76-13.09
				c-2.51-2.51-6.03-3.76-10.56-3.76c-3,0-6.12,0.43-9.36,1.29c-3.24,0.86-6.12,1.89-8.63,3.09l-1.8-7.92
				c2.21-1.09,5.25-2.11,9.13-3.06c3.88-0.96,7.93-1.43,12.16-1.43c4.87,0,9,0.81,12.39,2.42c3.39,1.61,6.03,4.35,7.92,8.2
				c1.89,3.86,2.84,9.07,2.84,15.62v23.82c0,2.51,0.15,6.31,0.45,11.41H623.03z M613.9,132.47c3.35-1.67,5.98-3.68,7.89-6.04v-13.04
				c-3.75-0.41-7.21-0.62-10.4-0.62c-6.71,0-11.36,1.09-13.96,3.26c-2.6,2.17-3.91,5.09-3.91,8.77c0,3.48,0.93,6.05,2.78,7.7
				c1.85,1.65,4.35,2.47,7.5,2.47C607.18,134.97,610.54,134.13,613.9,132.47z"/>
			<path class="st3" d="M647.38,139.46c-2.21-2.4-3.31-6.07-3.31-11.01V55.74l10.34-1.12v72.09c0,2.85,0.43,4.85,1.29,6.01
				c0.86,1.16,2.32,1.74,4.38,1.74c0.75,0,1.82-0.19,3.2-0.56l1.41,7.92c-1.01,0.37-2.25,0.67-3.71,0.9s-2.77,0.34-3.93,0.34
				C652.82,143.06,649.59,141.86,647.38,139.46z"/>
			<path class="st3" d="M678.91,139.46c-2.21-2.4-3.31-6.07-3.31-11.01V55.74l10.34-1.12v72.09c0,2.85,0.43,4.85,1.29,6.01
				c0.86,1.16,2.32,1.74,4.38,1.74c0.75,0,1.82-0.19,3.2-0.56l1.41,7.92c-1.01,0.37-2.25,0.67-3.71,0.9s-2.77,0.34-3.93,0.34
				C684.34,143.06,681.12,141.86,678.91,139.46z"/>
			<path class="st3" d="M750.98,112.15h-40.29c0.07,7.53,1.79,13.18,5.14,16.94s8.19,5.65,14.52,5.65c5.81,0,11.48-1.29,17.03-3.88
				l2.42,7.42c-3.03,1.54-6.25,2.72-9.64,3.54c-3.39,0.82-7.33,1.24-11.83,1.24c-6.03,0-11.15-1.22-15.37-3.65
				c-4.21-2.43-7.4-5.95-9.55-10.54c-2.16-4.59-3.23-10.1-3.23-16.55c0-6.63,1.12-12.34,3.37-17.14c2.25-4.79,5.38-8.45,9.41-10.96
				c4.03-2.51,8.66-3.76,13.91-3.76c5.39,0,9.9,1.29,13.51,3.88c3.61,2.58,6.28,5.98,8.01,10.2c1.72,4.21,2.58,8.79,2.58,13.74
				V112.15z M740.59,104.85c-0.38-5.54-1.79-9.71-4.24-12.5c-2.45-2.79-5.74-4.19-9.86-4.19c-4.08,0-7.46,1.41-10.14,4.24
				c-2.68,2.83-4.41,6.98-5.2,12.45H740.59z"/>
			<path class="st3" d="M762.26,96.82c0-3.37-0.15-8.43-0.45-15.17h9.55c0.22,1.69,0.43,3.72,0.62,6.1
				c0.19,2.38,0.32,4.26,0.39,5.65c1.65-2.66,3.26-4.91,4.83-6.74c1.57-1.83,3.43-3.32,5.56-4.47c2.13-1.14,4.57-1.71,7.3-1.71
				c2.02,0,3.86,0.24,5.51,0.73l-1.46,9.16c-1.42-0.37-2.92-0.56-4.5-0.56c-3.33,0-6.27,0.95-8.82,2.84
				c-2.55,1.89-5.28,4.95-8.2,9.19v40.12h-10.34V96.82z"/>
			<path class="st3" d="M798.82,165.7l1.97-8.04c0.79,0.22,1.93,0.48,3.43,0.76c1.5,0.28,2.87,0.42,4.1,0.42
				c3.37,0,6.23-1.21,8.57-3.62c2.34-2.42,4.41-5.91,6.21-10.48l1.24-2.98l-22.76-60.12h11.18l12.7,36.19
				c2.14,6.22,3.5,10.86,4.1,13.93c1.27-4.31,2.7-8.8,4.27-13.49l12.53-36.63h10.84l-23.15,61.98c-2.06,5.58-4.2,10.07-6.41,13.46
				c-2.21,3.39-4.82,5.94-7.84,7.64c-3.02,1.7-6.68,2.56-10.98,2.56C805.08,167.28,801.74,166.75,798.82,165.7z"/>
		</g>
		<g>
			<path class="st3" d="M302.74,182.74c-0.66-0.67-0.99-1.52-0.99-2.57s0.33-1.88,0.99-2.52c0.66-0.64,1.5-0.96,2.52-0.96
				c1.02,0,1.88,0.32,2.55,0.97c0.68,0.65,1.01,1.48,1.01,2.51c0,1.04-0.34,1.9-1.03,2.57c-0.69,0.67-1.53,1-2.54,1
				C304.23,183.74,303.39,183.41,302.74,182.74z M302.42,187.63h5.45v41.99h-5.45V187.63z"/>
			<path class="st3" d="M319.33,187.63h5.45v37.12h18.21l-0.61,4.87h-23.06V187.63z"/>
			<path class="st3" d="M349.63,187.63h23.92l-0.72,4.67h-17.75v13.37h16.79v4.5h-16.79v14.73h18.65l-0.61,4.73h-23.49V187.63z"/>
			<path class="st3" d="M400.67,187.63h5.45v22.1c1.8-2.17,3.19-3.89,4.18-5.16l13.31-16.94h6.29l-15.14,18.71l16.39,23.29h-6.41
				l-13.48-19.52l-5.13,5.37v14.15h-5.45V187.63z"/>
			<path class="st3" d="M437.04,187.63h23.92l-0.72,4.67h-17.75v13.37h16.79v4.5h-16.79v14.73h18.65l-0.61,4.73h-23.49V187.63z"/>
			<path class="st3" d="M491.5,224.17c-0.95,1.72-2.33,3.09-4.13,4.1s-3.97,1.63-6.48,1.84l-0.58,1.68c1.93,0.46,3.4,1.11,4.39,1.93
				c1,0.82,1.49,2,1.49,3.52c0,1.72-0.65,3.06-1.96,4.03s-3.19,1.45-5.67,1.45c-1.28,0-2.43-0.14-3.45-0.41
				c-1.02-0.27-2-0.68-2.93-1.22l1.19-2.93c1.72,0.89,3.44,1.33,5.16,1.33c1.08,0,1.97-0.2,2.65-0.59c0.69-0.4,1.03-0.97,1.03-1.73
				c0-0.97-0.52-1.67-1.57-2.12c-1.04-0.45-2.72-0.82-5.02-1.13l1.39-3.8c-1.88-0.14-3.73-0.46-5.55-0.96
				c-1.83-0.5-3.51-1.13-5.06-1.89l1.86-4.5c1.68,0.87,3.5,1.57,5.45,2.09c1.95,0.52,3.78,0.78,5.48,0.78c1.84,0,3.37-0.3,4.61-0.91
				c1.24-0.61,2.16-1.44,2.77-2.48s0.91-2.23,0.91-3.57c0-1.45-0.38-2.67-1.15-3.67c-0.76-1-1.74-1.82-2.93-2.47
				c-1.19-0.65-2.87-1.43-5.03-2.36c-2.38-1.02-4.34-2.02-5.87-2.97c-1.54-0.96-2.81-2.18-3.81-3.67c-1.01-1.49-1.51-3.31-1.51-5.45
				c0-2.2,0.54-4.14,1.62-5.81c1.08-1.67,2.62-2.97,4.63-3.89c2-0.92,4.35-1.38,7.06-1.38c2.01,0,4.01,0.24,5.99,0.71
				c1.98,0.47,3.65,1.07,5,1.78l-1.1,4.47c-3.52-1.6-6.8-2.41-9.83-2.41c-2.38,0-4.3,0.5-5.77,1.51c-1.47,1.01-2.2,2.51-2.2,4.52
				c0,1.33,0.36,2.47,1.07,3.41c0.72,0.94,1.71,1.77,2.99,2.49c1.28,0.73,3.08,1.59,5.42,2.6c2.42,1.04,4.37,2.04,5.86,2.97
				c1.49,0.94,2.69,2.14,3.61,3.61c0.92,1.47,1.38,3.3,1.38,5.48C492.92,220.46,492.45,222.45,491.5,224.17z"/>
			<path class="st3" d="M501.27,187.63h23.87l-0.61,4.67h-17.81v13.37h16.68v4.5h-16.68v19.46h-5.45V187.63z"/>
			<path class="st3" d="M532.65,187.63h23.92l-0.72,4.67H538.1v13.37h16.79v4.5H538.1v14.73h18.65l-0.61,4.73h-23.49V187.63z"/>
			<path class="st3" d="M565.16,187.63h12.64c4.58,0,8.5,0.74,11.76,2.23c3.26,1.49,5.75,3.7,7.48,6.64
				c1.73,2.94,2.6,6.54,2.6,10.82c0,4.35-0.89,8.21-2.68,11.57c-1.79,3.36-4.36,5.99-7.71,7.89c-3.35,1.89-7.31,2.84-11.88,2.84
				h-12.21V187.63z M576.91,225.12c3.71,0,6.84-0.74,9.4-2.22c2.55-1.48,4.46-3.54,5.73-6.18c1.27-2.64,1.9-5.7,1.9-9.18
				c0-5.12-1.4-8.98-4.19-11.56s-6.96-3.87-12.51-3.87h-6.61v33H576.91z"/>
			<path class="st3" d="M608.54,182.74c-0.66-0.67-0.99-1.52-0.99-2.57s0.33-1.88,0.99-2.52c0.66-0.64,1.5-0.96,2.52-0.96
				s1.88,0.32,2.55,0.97c0.68,0.65,1.02,1.48,1.02,2.51c0,1.04-0.34,1.9-1.03,2.57c-0.69,0.67-1.53,1-2.54,1
				C610.04,183.74,609.2,183.41,608.54,182.74z M608.23,187.63h5.45v41.99h-5.45V187.63z"/>
			<path class="st3" d="M625.13,187.63h6.21l22.76,34.66c-0.17-3.13-0.26-5.98-0.26-8.56v-26.1h5.19v41.99h-6l-23.08-35.15
				c0.1,1.41,0.18,3.08,0.25,5c0.07,1.92,0.1,3.64,0.1,5.15v25h-5.16V187.63z"/>
		</g>
	</g>
</g>
<g>
</g>
<g>
</g>
<g>
</g>
<g>
</g>
<g>
</g>
<g>
</g>
</svg>
