<?xml version="1.0" encoding="utf-8"?>
<!-- Generator: Adobe Illustrator 24.0.1, SVG Export Plug-In . SVG Version: 6.00 Build 0)  -->
<svg version="1.1" id="Layer_1" xmlns="http://www.w3.org/2000/svg" xmlns:xlink="http://www.w3.org/1999/xlink" x="0px" y="0px"
	 viewBox="0 0 643.05 167.31" style="enable-background:new 0 0 643.05 167.31;" xml:space="preserve">
<style type="text/css">
	.st0{fill:#FFFFFF;}
	.st1{fill:url(#SVGID_1_);}
	.st2{fill:url(#SVGID_2_);}
	.st3{fill:url(#SVGID_3_);}
	.st4{fill:url(#SVGID_4_);}
	.st5{opacity:0.2;fill:#010101;enable-background:new    ;}
	.st6{opacity:0.12;fill:#010101;enable-background:new    ;}
	.st7{opacity:0.25;fill:#FFFFFF;enable-background:new    ;}
</style>
<path d="M643.05,144.7c0,12.49-12.72,22.61-28.42,22.61H28.43C12.73,167.31,0,157.19,0,144.7V22.61C0,10.12,12.73,0,28.43,0h586.2
	c15.7,0,28.42,10.12,28.42,22.61V144.7z"/>
<g>
	<path class="st0" d="M195.87,105.34l1.84-5.78h2.14v9.8h-3.98V105.34z"/>
	<path class="st0" d="M205.78,125.79V99.56h8.67c3.33,0,6.03,1.04,8.12,3.12c2.08,2.08,3.12,4.75,3.12,8.02v3.98
		c0,3.28-1.04,5.95-3.12,8.02c-2.08,2.07-4.79,3.1-8.12,3.1H205.78z M210.16,103.07v19.22h4.29c2.1,0,3.77-0.71,5.01-2.13
		c1.24-1.42,1.86-3.25,1.86-5.49v-4.02c0-2.21-0.62-4.03-1.86-5.45c-1.24-1.42-2.91-2.13-5.01-2.13H210.16z"/>
	<path class="st0" d="M245.14,113.99h-10.27v8.3h12.11v3.49H230.5V99.56h16.36v3.51h-11.98v7.4h10.27V113.99z"/>
	<path class="st0" d="M271.41,125.79h-4.38l-11.62-18.9l-0.11,0.04v18.86h-4.38V99.56h4.38l11.62,18.9l0.11-0.04V99.56h4.38V125.79z
		"/>
	<path class="st0" d="M299.76,119.66h-9.29l-2.02,6.12h-4.52l9.15-26.23h4.16l9.04,26.23h-4.52L299.76,119.66z M291.67,116.01h6.9
		l-3.37-10.34h-0.11L291.67,116.01z"/>
	<path class="st0" d="M313.9,122.29h12.29v3.49h-16.66V99.56h4.38V122.29z"/>
	<path class="st0" d="M334.64,125.79h-4.38V99.56h4.38V125.79z"/>
	<path class="st0" d="M360.99,125.79h-4.38L345,106.89l-0.11,0.04v18.86h-4.38V99.56h4.38l11.62,18.9l0.11-0.04V99.56h4.38V125.79z"
		/>
</g>
<path class="st0" d="M299.47,45.25c-8.6,0-15.4,6.45-15.4,15.4c0,8.6,6.8,15.4,15.4,15.4c8.6,0,15.4-6.45,15.4-15.4
	C314.87,51.34,308.07,45.25,299.47,45.25z M299.47,69.6c-4.66,0-8.6-3.94-8.6-9.31c0-5.37,3.94-9.31,8.6-9.31
	c4.66,0,8.6,3.58,8.6,9.31C308.07,65.66,304.13,69.6,299.47,69.6z M266.17,45.25c-8.6,0-15.4,6.45-15.4,15.4
	c0,8.6,6.8,15.4,15.4,15.4s15.4-6.45,15.4-15.4C281.57,51.34,274.76,45.25,266.17,45.25z M266.17,69.6c-4.66,0-8.6-3.94-8.6-9.31
	c0-5.37,3.94-9.31,8.6-9.31s8.6,3.58,8.6,9.31C274.76,65.66,270.82,69.6,266.17,69.6z M226.41,49.91v6.45h15.4
	c-0.36,3.58-1.79,6.45-3.58,8.24c-2.15,2.15-5.73,4.66-11.82,4.66c-9.67,0-16.83-7.52-16.83-17.19s7.52-17.19,16.83-17.19
	c5.01,0,8.95,2.15,11.82,4.66l4.66-4.66c-3.94-3.58-8.95-6.45-16.12-6.45c-12.89,0-23.99,10.74-23.99,23.64s11.1,23.64,23.99,23.64
	c7.16,0,12.18-2.15,16.47-6.8c4.3-4.3,5.73-10.39,5.73-15.04c0-1.43,0-2.87-0.36-3.94L226.41,49.91L226.41,49.91z M389.01,54.92
	c-1.43-3.58-5.01-9.67-12.89-9.67c-7.88,0-14.33,6.09-14.33,15.4c0,8.6,6.45,15.4,15.04,15.4c6.8,0,11.1-4.3,12.53-6.8l-5.01-3.58
	c-1.79,2.51-3.94,4.3-7.52,4.3s-5.73-1.43-7.52-4.66l20.41-8.6L389.01,54.92L389.01,54.92z M368.23,59.93
	c0-5.73,4.66-8.95,7.88-8.95c2.51,0,5.01,1.43,5.73,3.22L368.23,59.93L368.23,59.93z M351.4,74.62h6.8V29.85h-6.8V74.62z
	 M340.66,48.47c-1.79-1.79-4.66-3.58-8.24-3.58c-7.52,0-14.68,6.8-14.68,15.4s6.8,15.04,14.68,15.04c3.58,0,6.45-1.79,7.88-3.58
	h0.36v2.15c0,5.73-3.22,8.95-8.24,8.95c-3.94,0-6.8-2.87-7.52-5.37l-5.73,2.51c1.79,3.94,6.09,8.95,13.61,8.95
	c7.88,0,14.33-4.66,14.33-15.76V45.97h-6.45V48.47L340.66,48.47z M332.78,69.6c-4.66,0-8.6-3.94-8.6-9.31s3.94-9.31,8.6-9.31
	s8.24,3.94,8.24,9.31S337.43,69.6,332.78,69.6z M420.16,29.85h-16.12v44.77h6.8V57.79h9.31c7.52,0,14.68-5.37,14.68-13.97
	S427.68,29.85,420.16,29.85z M420.52,51.34h-9.67v-15.4h9.67c5.01,0,7.88,4.3,7.88,7.52C428.04,47.4,425.18,51.34,420.52,51.34
	L420.52,51.34z M461.71,44.89c-5.01,0-10.03,2.15-11.82,6.8l6.09,2.51c1.43-2.51,3.58-3.22,6.09-3.22c3.58,0,6.8,2.15,7.16,5.73
	v0.36c-1.07-0.72-3.94-1.79-6.8-1.79c-6.45,0-12.89,3.58-12.89,10.03c0,6.09,5.37,10.03,11.1,10.03c4.66,0,6.8-2.15,8.6-4.3h0.36
	v3.58h6.45V57.43C475.32,49.55,469.23,44.89,461.71,44.89L461.71,44.89z M460.99,69.6c-2.15,0-5.37-1.07-5.37-3.94
	c0-3.58,3.94-4.66,7.16-4.66c2.87,0,4.3,0.72,6.09,1.43C468.15,66.74,464.57,69.6,460.99,69.6z M498.59,45.97l-7.52,19.34h-0.36
	l-7.88-19.34h-7.16l11.82,27.22l-6.8,15.04h6.8l18.26-42.26H498.59L498.59,45.97z M438.43,74.62h6.8V29.85h-6.8V74.62z"/>
<g>
	
		<linearGradient id="SVGID_1_" gradientUnits="userSpaceOnUse" x1="-578.3448" y1="1623.6638" x2="-583.5067" y2="1623.6638" gradientTransform="matrix(18.5185 0 0 18.5185 10885.9121 -29985.0371)">
		<stop  offset="0" style="stop-color:#FEE000"/>
		<stop  offset="0.409" style="stop-color:#FEBD11"/>
		<stop  offset="0.775" style="stop-color:#FAA51A"/>
		<stop  offset="1" style="stop-color:#F99C1C"/>
	</linearGradient>
	<path class="st1" d="M148.83,99.6l-16.2-16.2v-1.19l16.2-16.2l0.4,0.4l19.36,11.06c5.53,3.16,5.53,8.3,0,11.46L148.83,99.6z"/>
	
		<linearGradient id="SVGID_2_" gradientUnits="userSpaceOnUse" x1="-580.2687" y1="1624.1405" x2="-585.1235" y2="1628.9952" gradientTransform="matrix(18.5185 0 0 18.5185 10885.9121 -29985.0371)">
		<stop  offset="0" style="stop-color:#EF4049"/>
		<stop  offset="1" style="stop-color:#C31E63"/>
	</linearGradient>
	<path class="st2" d="M149.22,99.2l-16.59-16.59l-49.38,49.38c1.98,1.98,4.74,1.98,8.3,0.4L149.22,99.2"/>
	
		<linearGradient id="SVGID_3_" gradientUnits="userSpaceOnUse" x1="-584.0134" y1="1619.4318" x2="-581.8454" y2="1621.5997" gradientTransform="matrix(18.5185 0 0 18.5185 10885.9121 -29985.0371)">
		<stop  offset="0" style="stop-color:#32A072"/>
		<stop  offset="0.069" style="stop-color:#2DA771"/>
		<stop  offset="0.476" style="stop-color:#4BBA71"/>
		<stop  offset="0.801" style="stop-color:#5EBD6B"/>
		<stop  offset="1" style="stop-color:#66BE69"/>
	</linearGradient>
	<path class="st3" d="M149.22,66.02L91.54,33.23c-3.56-1.98-6.32-1.58-8.3,0.4l49.38,48.99L149.22,66.02L149.22,66.02z"/>
	<g>
		
			<linearGradient id="SVGID_4_" gradientUnits="userSpaceOnUse" x1="-580.913" y1="1621.2437" x2="-584.4932" y2="1624.8237" gradientTransform="matrix(18.5185 0 0 18.5185 10885.9121 -29985.0371)">
			<stop  offset="0" style="stop-color:#4998D3"/>
			<stop  offset="7.000001e-03" style="stop-color:#4A99D3"/>
			<stop  offset="0.26" style="stop-color:#42BAEB"/>
			<stop  offset="0.512" style="stop-color:#41C7F2"/>
			<stop  offset="0.76" style="stop-color:#56C9E9"/>
			<stop  offset="1" style="stop-color:#5BCAE8"/>
		</linearGradient>
		<path class="st4" d="M83.25,33.23c-1.19,1.19-1.58,3.16-1.58,5.53v87.3c0,2.37,0.79,4.35,1.98,5.53l0.4,0.4l48.99-48.99v-0.79
			L83.25,33.23z"/>
		<path class="st5" d="M148.83,98.81L91.54,131.2c-3.16,1.98-5.93,1.58-7.9,0l-0.4,0.4l0.4,0.4c1.98,1.58,4.74,1.98,7.9,0
			L148.83,98.81z"/>
		<path class="st6" d="M83.25,131.2c-1.19-1.19-1.58-3.16-1.58-5.53v0.4c0,2.37,0.79,4.35,1.98,5.53v-0.4L83.25,131.2L83.25,131.2z
			 M168.58,87.75l-19.75,11.06l0.4,0.4l19.36-11.06c2.77-1.58,3.95-3.56,3.95-5.53C172.53,84.59,170.95,86.17,168.58,87.75z"/>
		<path class="st7" d="M91.54,33.63l77.03,43.85c2.37,1.58,3.95,3.16,3.95,5.14c0-1.98-1.19-3.95-3.95-5.53L91.54,33.23
			c-5.53-3.16-9.88-0.79-9.88,5.53v0.4C81.67,33.23,86.01,30.47,91.54,33.63z"/>
	</g>
</g>
</svg>
