<?xml version="1.0" encoding="UTF-8"?>
<!DOCTYPE svg PUBLIC "-//W3C//DTD SVG 1.1//EN" "http://www.w3.org/Graphics/SVG/1.1/DTD/svg11.dtd">
<svg xmlns="http://www.w3.org/2000/svg" version="1.1" width="300px" height="138px" style="shape-rendering:geometricPrecision; text-rendering:geometricPrecision; image-rendering:optimizeQuality; fill-rule:evenodd; clip-rule:evenodd" xmlns:xlink="http://www.w3.org/1999/xlink">
<g><path style="opacity:1" fill="#35434c" d="M 18.5,-0.5 C 25.5,-0.5 32.5,-0.5 39.5,-0.5C 42.5022,1.01994 44.1689,3.51994 44.5,7C 43.7633,11.93 42.7633,16.7633 41.5,21.5C 46.6405,22.4881 51.9738,22.8214 57.5,22.5C 57.5,23.5 57.5,24.5 57.5,25.5C 57.0737,31.461 56.0737,37.2943 54.5,43C 48.8431,43.4994 43.1764,43.6661 37.5,43.5C 36.4927,52.3721 35.1594,61.2054 33.5,70C 33.833,75.5213 36.833,78.3546 42.5,78.5C 43.9187,79.4511 45.5853,79.7845 47.5,79.5C 47.5,80.5 47.5,81.5 47.5,82.5C 47.0203,88.3856 46.0203,94.0522 44.5,99.5C 39.4682,101.37 34.1348,102.037 28.5,101.5C 14.4691,100.136 6.80242,92.4691 5.5,78.5C 6.92879,66.8611 8.92879,55.3611 11.5,44C 7.51383,43.5012 3.51383,43.3345 -0.5,43.5C -0.5,41.8333 -0.5,40.1667 -0.5,38.5C 0.597641,34.2811 1.59764,29.9478 2.5,25.5C 3.40397,24.791 3.73731,23.791 3.5,22.5C 7.37141,22.815 11.0381,22.4816 14.5,21.5C 16.4503,14.4046 17.7836,7.07128 18.5,-0.5 Z"/></g>
<g><path style="opacity:1" fill="#95dce1" d="M 157.5,21.5 C 160.355,20.1968 163.355,20.1968 166.5,21.5C 166.376,22.1067 166.043,22.44 165.5,22.5C 163.052,21.5269 160.385,21.1936 157.5,21.5 Z"/></g>
<g><path style="opacity:1" fill="#677279" d="M 14.5,21.5 C 11.0381,22.4816 7.37141,22.815 3.5,22.5C 3.73731,23.791 3.40397,24.791 2.5,25.5C 2.5,24.1667 2.5,22.8333 2.5,21.5C 6.5,21.5 10.5,21.5 14.5,21.5 Z"/></g>
<g><path style="opacity:1" fill="#6f797f" d="M 41.5,21.5 C 47.1667,21.5 52.8333,21.5 58.5,21.5C 58.7678,23.099 58.4345,24.4324 57.5,25.5C 57.5,24.5 57.5,23.5 57.5,22.5C 51.9738,22.8214 46.6405,22.4881 41.5,21.5 Z"/></g>
<g><path style="opacity:1" fill="#6c767d" d="M 87.5,22.5 C 80.7446,22.2066 74.0779,22.5399 67.5,23.5C 70.428,22.1803 73.7614,21.5136 77.5,21.5C 81.0175,21.5016 84.3509,21.8349 87.5,22.5 Z"/></g>
<g><path style="opacity:1" fill="#35434d" d="M 80.5,101.5 C 71.8333,101.5 63.1667,101.5 54.5,101.5C 54.5,100.5 54.5,99.5 54.5,98.5C 58.4486,73.4247 62.7819,48.4247 67.5,23.5C 74.0779,22.5399 80.7446,22.2066 87.5,22.5C 89.371,22.8588 90.871,23.8588 92,25.5C 92.7466,28.9236 92.58,32.2569 91.5,35.5C 90.4017,36.6009 90.235,37.9343 91,39.5C 91.7172,38.9558 92.2172,38.2891 92.5,37.5C 99.1192,26.1824 109.119,20.5157 122.5,20.5C 121.426,29.5387 120.092,38.5387 118.5,47.5C 101.598,45.855 91.0975,53.1883 87,69.5C 85.1381,80.3674 82.9714,91.034 80.5,101.5 Z"/></g>
<g><path style="opacity:1" fill="#18b0bd" d="M 157.5,21.5 C 160.385,21.1936 163.052,21.5269 165.5,22.5C 164.66,29.8754 163.493,37.2088 162,44.5C 157.518,46.4103 153.518,49.077 150,52.5C 145.426,62.4461 147.593,70.6127 156.5,77C 154.895,84.794 153.562,92.6273 152.5,100.5C 136.421,96.2513 126.588,85.918 123,69.5C 120.421,48.8212 128.255,33.6545 146.5,24C 150.014,22.4383 153.681,21.605 157.5,21.5 Z"/></g>
<g><path style="opacity:1" fill="#6a757b" d="M 270.5,22.5 C 279.986,21.5062 289.652,21.1729 299.5,21.5C 299.5,22.1667 299.5,22.8333 299.5,23.5C 299.167,23.5 298.833,23.5 298.5,23.5C 289.348,22.5064 280.015,22.1731 270.5,22.5 Z"/></g>
<g><path style="opacity:1" fill="#34424c" d="M 243.5,68.5 C 243.343,69.8734 243.51,71.2068 244,72.5C 244.717,71.9558 245.217,71.2891 245.5,70.5C 251.437,55.2883 257.937,40.2883 265,25.5C 266.488,23.84 268.321,22.84 270.5,22.5C 280.015,22.1731 289.348,22.5064 298.5,23.5C 282.201,55.4299 265.368,87.0966 248,118.5C 241.107,128.242 231.94,134.576 220.5,137.5C 209.833,137.5 199.167,137.5 188.5,137.5C 188.926,129.606 190.426,121.939 193,114.5C 193.833,113.667 194.667,112.833 195.5,112C 203.244,111.897 210.911,111.231 218.5,110C 222.666,107.323 224.999,103.49 225.5,98.5C 218.29,72.8721 211.29,47.2054 204.5,21.5C 213.839,21.3335 223.173,21.5002 232.5,22C 233.931,22.4652 235.097,23.2986 236,24.5C 239.469,38.9793 241.969,53.6459 243.5,68.5 Z"/></g>
<g><path style="opacity:1" fill="#18b0bd" d="M 174.5,22.5 C 196.69,30.2272 206.523,45.8939 204,69.5C 199.071,89.4299 186.404,100.43 166,102.5C 164.167,102.167 162.333,101.833 160.5,101.5C 162.213,93.8887 163.713,86.2221 165,78.5C 177.223,74.7186 181.556,66.7186 178,54.5C 175.801,51.3071 173.301,48.4738 170.5,46C 172.105,38.206 173.438,30.3727 174.5,22.5 Z"/></g>
<g><path style="opacity:1" fill="#a0a7ab" d="M 91.5,35.5 C 91.3284,36.4916 91.6618,37.1583 92.5,37.5C 92.2172,38.2891 91.7172,38.9558 91,39.5C 90.235,37.9343 90.4017,36.6009 91.5,35.5 Z"/></g>
<g><path style="opacity:1" fill="#b3b8bb" d="M 243.5,68.5 C 244.167,69.1667 244.833,69.8333 245.5,70.5C 245.217,71.2891 244.717,71.9558 244,72.5C 243.51,71.2068 243.343,69.8734 243.5,68.5 Z"/></g>
<g><path style="opacity:1" fill="#939a9f" d="M 42.5,78.5 C 44.5,78.5 46.5,78.5 48.5,78.5C 48.7678,80.099 48.4345,81.4324 47.5,82.5C 47.5,81.5 47.5,80.5 47.5,79.5C 45.5853,79.7845 43.9187,79.4511 42.5,78.5 Z"/></g>
<g><path style="opacity:1" fill="#606b72" d="M 44.5,99.5 C 44.5,100.5 44.5,101.5 44.5,102.5C 38.9738,102.821 33.6405,102.488 28.5,101.5C 34.1348,102.037 39.4682,101.37 44.5,99.5 Z"/></g>
<g><path style="opacity:1" fill="#d1d4d6" d="M 54.5,98.5 C 54.5,99.5 54.5,100.5 54.5,101.5C 63.1667,101.5 71.8333,101.5 80.5,101.5C 71.6822,102.493 62.6822,102.827 53.5,102.5C 53.2322,100.901 53.5655,99.5676 54.5,98.5 Z"/></g>
<g><path style="opacity:1" fill="#6b757c" d="M 299.5,101.5 C 299.5,104.167 299.5,106.833 299.5,109.5C 294.903,115.129 289.736,115.796 284,111.5C 279.7,101.125 283.2,96.2913 294.5,97C 296.362,98.3657 298.028,99.8657 299.5,101.5 Z M 294.5,110.5 C 291.246,113.166 288.079,112.833 285,109.5C 282.651,103.58 284.651,99.913 291,98.5C 297.044,99.9195 298.877,103.586 296.5,109.5C 296.043,110.298 295.376,110.631 294.5,110.5 Z M 289.5,102.5 C 293.5,103.167 293.5,103.833 289.5,104.5C 289.5,103.833 289.5,103.167 289.5,102.5 Z"/></g>
<g><path style="opacity:1" fill="#58636b" d="M 288.5,100.5 C 289.5,100.5 290.5,100.5 291.5,100.5C 290.833,101.167 290.167,101.833 289.5,102.5C 289.5,103.167 289.5,103.833 289.5,104.5C 290.5,105.167 291.5,105.833 292.5,106.5C 293.6,107.605 294.267,108.938 294.5,110.5C 292.376,109.969 290.876,108.635 290,106.5C 289.517,107.448 289.351,108.448 289.5,109.5C 288.523,106.713 288.19,103.713 288.5,100.5 Z"/></g>
<g><path style="opacity:1" fill="#838c91" d="M 291.5,100.5 C 293.484,100.484 294.484,101.484 294.5,103.5C 294.547,105.038 293.88,106.038 292.5,106.5C 291.5,105.833 290.5,105.167 289.5,104.5C 293.5,103.833 293.5,103.167 289.5,102.5C 290.167,101.833 290.833,101.167 291.5,100.5 Z"/></g>
<g><path style="opacity:1" fill="#8f969c" d="M 288.5,100.5 C 288.19,103.713 288.523,106.713 289.5,109.5C 289.44,110.043 289.107,110.376 288.5,110.5C 287.194,107.02 287.194,103.687 288.5,100.5 Z"/></g>
</svg>
